G04 #@! TF.FileFunction,Legend,Top*
%FSLAX46Y46*%
G04 Gerber Fmt 4.6, Leading zero omitted, Abs format (unit mm)*
G04 Created by KiCad (PCBNEW 4.0.1-stable) date Mon 28 Dec 2015 01:36:40 PM CET*
%MOMM*%
G01*
G04 APERTURE LIST*
%ADD10C,0.100000*%
%ADD11C,0.200000*%
%ADD12C,0.300000*%
%ADD13C,0.360000*%
%ADD14C,0.500000*%
%ADD15C,0.150000*%
%ADD16C,0.127000*%
%ADD17C,0.076200*%
G04 APERTURE END LIST*
D10*
D11*
X135454761Y-131167143D02*
X135407142Y-131214762D01*
X135264285Y-131262381D01*
X135169047Y-131262381D01*
X135026189Y-131214762D01*
X134930951Y-131119524D01*
X134883332Y-131024286D01*
X134835713Y-130833810D01*
X134835713Y-130690952D01*
X134883332Y-130500476D01*
X134930951Y-130405238D01*
X135026189Y-130310000D01*
X135169047Y-130262381D01*
X135264285Y-130262381D01*
X135407142Y-130310000D01*
X135454761Y-130357619D01*
X136026189Y-131262381D02*
X135930951Y-131214762D01*
X135883332Y-131167143D01*
X135835713Y-131071905D01*
X135835713Y-130786190D01*
X135883332Y-130690952D01*
X135930951Y-130643333D01*
X136026189Y-130595714D01*
X136169047Y-130595714D01*
X136264285Y-130643333D01*
X136311904Y-130690952D01*
X136359523Y-130786190D01*
X136359523Y-131071905D01*
X136311904Y-131167143D01*
X136264285Y-131214762D01*
X136169047Y-131262381D01*
X136026189Y-131262381D01*
X136788094Y-130595714D02*
X136788094Y-131595714D01*
X136788094Y-130643333D02*
X136883332Y-130595714D01*
X137073809Y-130595714D01*
X137169047Y-130643333D01*
X137216666Y-130690952D01*
X137264285Y-130786190D01*
X137264285Y-131071905D01*
X137216666Y-131167143D01*
X137169047Y-131214762D01*
X137073809Y-131262381D01*
X136883332Y-131262381D01*
X136788094Y-131214762D01*
X137597618Y-130595714D02*
X137835713Y-131262381D01*
X138073809Y-130595714D02*
X137835713Y-131262381D01*
X137740475Y-131500476D01*
X137692856Y-131548095D01*
X137597618Y-131595714D01*
X138454761Y-131262381D02*
X138454761Y-130595714D01*
X138454761Y-130786190D02*
X138502380Y-130690952D01*
X138549999Y-130643333D01*
X138645237Y-130595714D01*
X138740476Y-130595714D01*
X139073809Y-131262381D02*
X139073809Y-130595714D01*
X139073809Y-130262381D02*
X139026190Y-130310000D01*
X139073809Y-130357619D01*
X139121428Y-130310000D01*
X139073809Y-130262381D01*
X139073809Y-130357619D01*
X139978571Y-130595714D02*
X139978571Y-131405238D01*
X139930952Y-131500476D01*
X139883333Y-131548095D01*
X139788094Y-131595714D01*
X139645237Y-131595714D01*
X139549999Y-131548095D01*
X139978571Y-131214762D02*
X139883333Y-131262381D01*
X139692856Y-131262381D01*
X139597618Y-131214762D01*
X139549999Y-131167143D01*
X139502380Y-131071905D01*
X139502380Y-130786190D01*
X139549999Y-130690952D01*
X139597618Y-130643333D01*
X139692856Y-130595714D01*
X139883333Y-130595714D01*
X139978571Y-130643333D01*
X140454761Y-131262381D02*
X140454761Y-130262381D01*
X140883333Y-131262381D02*
X140883333Y-130738571D01*
X140835714Y-130643333D01*
X140740476Y-130595714D01*
X140597618Y-130595714D01*
X140502380Y-130643333D01*
X140454761Y-130690952D01*
X141216666Y-130595714D02*
X141597618Y-130595714D01*
X141359523Y-130262381D02*
X141359523Y-131119524D01*
X141407142Y-131214762D01*
X141502380Y-131262381D01*
X141597618Y-131262381D01*
X142645238Y-130357619D02*
X142692857Y-130310000D01*
X142788095Y-130262381D01*
X143026191Y-130262381D01*
X143121429Y-130310000D01*
X143169048Y-130357619D01*
X143216667Y-130452857D01*
X143216667Y-130548095D01*
X143169048Y-130690952D01*
X142597619Y-131262381D01*
X143216667Y-131262381D01*
X143835714Y-130262381D02*
X143930953Y-130262381D01*
X144026191Y-130310000D01*
X144073810Y-130357619D01*
X144121429Y-130452857D01*
X144169048Y-130643333D01*
X144169048Y-130881429D01*
X144121429Y-131071905D01*
X144073810Y-131167143D01*
X144026191Y-131214762D01*
X143930953Y-131262381D01*
X143835714Y-131262381D01*
X143740476Y-131214762D01*
X143692857Y-131167143D01*
X143645238Y-131071905D01*
X143597619Y-130881429D01*
X143597619Y-130643333D01*
X143645238Y-130452857D01*
X143692857Y-130357619D01*
X143740476Y-130310000D01*
X143835714Y-130262381D01*
X145121429Y-131262381D02*
X144550000Y-131262381D01*
X144835714Y-131262381D02*
X144835714Y-130262381D01*
X144740476Y-130405238D01*
X144645238Y-130500476D01*
X144550000Y-130548095D01*
X146026191Y-130262381D02*
X145550000Y-130262381D01*
X145502381Y-130738571D01*
X145550000Y-130690952D01*
X145645238Y-130643333D01*
X145883334Y-130643333D01*
X145978572Y-130690952D01*
X146026191Y-130738571D01*
X146073810Y-130833810D01*
X146073810Y-131071905D01*
X146026191Y-131167143D01*
X145978572Y-131214762D01*
X145883334Y-131262381D01*
X145645238Y-131262381D01*
X145550000Y-131214762D01*
X145502381Y-131167143D01*
X146550000Y-131214762D02*
X146550000Y-131262381D01*
X146502381Y-131357619D01*
X146454762Y-131405238D01*
X148026191Y-130262381D02*
X148026191Y-130976667D01*
X147978571Y-131119524D01*
X147883333Y-131214762D01*
X147740476Y-131262381D01*
X147645238Y-131262381D01*
X148645238Y-131262381D02*
X148550000Y-131214762D01*
X148502381Y-131167143D01*
X148454762Y-131071905D01*
X148454762Y-130786190D01*
X148502381Y-130690952D01*
X148550000Y-130643333D01*
X148645238Y-130595714D01*
X148788096Y-130595714D01*
X148883334Y-130643333D01*
X148930953Y-130690952D01*
X148978572Y-130786190D01*
X148978572Y-131071905D01*
X148930953Y-131167143D01*
X148883334Y-131214762D01*
X148788096Y-131262381D01*
X148645238Y-131262381D01*
X149835715Y-131262381D02*
X149835715Y-130738571D01*
X149788096Y-130643333D01*
X149692858Y-130595714D01*
X149502381Y-130595714D01*
X149407143Y-130643333D01*
X149835715Y-131214762D02*
X149740477Y-131262381D01*
X149502381Y-131262381D01*
X149407143Y-131214762D01*
X149359524Y-131119524D01*
X149359524Y-131024286D01*
X149407143Y-130929048D01*
X149502381Y-130881429D01*
X149740477Y-130881429D01*
X149835715Y-130833810D01*
X150311905Y-131262381D02*
X150311905Y-130262381D01*
X150407143Y-130881429D02*
X150692858Y-131262381D01*
X150692858Y-130595714D02*
X150311905Y-130976667D01*
X151121429Y-131262381D02*
X151121429Y-130595714D01*
X151121429Y-130262381D02*
X151073810Y-130310000D01*
X151121429Y-130357619D01*
X151169048Y-130310000D01*
X151121429Y-130262381D01*
X151121429Y-130357619D01*
X151597619Y-131262381D02*
X151597619Y-130595714D01*
X151597619Y-130690952D02*
X151645238Y-130643333D01*
X151740476Y-130595714D01*
X151883334Y-130595714D01*
X151978572Y-130643333D01*
X152026191Y-130738571D01*
X152026191Y-131262381D01*
X152026191Y-130738571D02*
X152073810Y-130643333D01*
X152169048Y-130595714D01*
X152311905Y-130595714D01*
X152407143Y-130643333D01*
X152454762Y-130738571D01*
X152454762Y-131262381D01*
X153978572Y-130262381D02*
X153978572Y-130976667D01*
X153930952Y-131119524D01*
X153835714Y-131214762D01*
X153692857Y-131262381D01*
X153597619Y-131262381D01*
X154883334Y-131262381D02*
X154883334Y-130738571D01*
X154835715Y-130643333D01*
X154740477Y-130595714D01*
X154550000Y-130595714D01*
X154454762Y-130643333D01*
X154883334Y-131214762D02*
X154788096Y-131262381D01*
X154550000Y-131262381D01*
X154454762Y-131214762D01*
X154407143Y-131119524D01*
X154407143Y-131024286D01*
X154454762Y-130929048D01*
X154550000Y-130881429D01*
X154788096Y-130881429D01*
X154883334Y-130833810D01*
X155502381Y-131262381D02*
X155407143Y-131214762D01*
X155359524Y-131119524D01*
X155359524Y-130262381D01*
X156311906Y-131262381D02*
X156311906Y-130738571D01*
X156264287Y-130643333D01*
X156169049Y-130595714D01*
X155978572Y-130595714D01*
X155883334Y-130643333D01*
X156311906Y-131214762D02*
X156216668Y-131262381D01*
X155978572Y-131262381D01*
X155883334Y-131214762D01*
X155835715Y-131119524D01*
X155835715Y-131024286D01*
X155883334Y-130929048D01*
X155978572Y-130881429D01*
X156216668Y-130881429D01*
X156311906Y-130833810D01*
X156788096Y-130595714D02*
X156788096Y-131595714D01*
X156788096Y-130643333D02*
X156883334Y-130595714D01*
X157073811Y-130595714D01*
X157169049Y-130643333D01*
X157216668Y-130690952D01*
X157264287Y-130786190D01*
X157264287Y-131071905D01*
X157216668Y-131167143D01*
X157169049Y-131214762D01*
X157073811Y-131262381D01*
X156883334Y-131262381D01*
X156788096Y-131214762D01*
X139617619Y-95078571D02*
X139617619Y-95611905D01*
X139427143Y-94773810D02*
X139236667Y-95345238D01*
X139731905Y-95345238D01*
X140036667Y-95307143D02*
X140646191Y-95307143D01*
X141027143Y-95611905D02*
X141027143Y-94811905D01*
X141331905Y-94811905D01*
X141408096Y-94850000D01*
X141446191Y-94888095D01*
X141484286Y-94964286D01*
X141484286Y-95078571D01*
X141446191Y-95154762D01*
X141408096Y-95192857D01*
X141331905Y-95230952D01*
X141027143Y-95230952D01*
X141827143Y-95611905D02*
X141827143Y-94811905D01*
X142208095Y-95611905D02*
X142208095Y-94811905D01*
X142665238Y-95611905D01*
X142665238Y-94811905D01*
X138601429Y-112947619D02*
X138068095Y-112947619D01*
X138906190Y-112757143D02*
X138334762Y-112566667D01*
X138334762Y-113061905D01*
X138372857Y-113366667D02*
X138372857Y-113976191D01*
X138068095Y-114357143D02*
X138868095Y-114357143D01*
X138868095Y-114661905D01*
X138830000Y-114738096D01*
X138791905Y-114776191D01*
X138715714Y-114814286D01*
X138601429Y-114814286D01*
X138525238Y-114776191D01*
X138487143Y-114738096D01*
X138449048Y-114661905D01*
X138449048Y-114357143D01*
X138068095Y-115157143D02*
X138868095Y-115157143D01*
X138068095Y-115538095D02*
X138868095Y-115538095D01*
X138068095Y-115995238D01*
X138868095Y-115995238D01*
X123628095Y-87128572D02*
X123628095Y-87623810D01*
X123323333Y-87357143D01*
X123323333Y-87471429D01*
X123285238Y-87547619D01*
X123247143Y-87585715D01*
X123170952Y-87623810D01*
X122980476Y-87623810D01*
X122904286Y-87585715D01*
X122866190Y-87547619D01*
X122828095Y-87471429D01*
X122828095Y-87242857D01*
X122866190Y-87166667D01*
X122904286Y-87128572D01*
X123132857Y-87966667D02*
X123132857Y-88576191D01*
X122828095Y-88957143D02*
X123628095Y-88957143D01*
X123628095Y-89261905D01*
X123590000Y-89338096D01*
X123551905Y-89376191D01*
X123475714Y-89414286D01*
X123361429Y-89414286D01*
X123285238Y-89376191D01*
X123247143Y-89338096D01*
X123209048Y-89261905D01*
X123209048Y-88957143D01*
X122828095Y-89757143D02*
X123628095Y-89757143D01*
X122828095Y-90138095D02*
X123628095Y-90138095D01*
X122828095Y-90595238D01*
X123628095Y-90595238D01*
X112858571Y-90252381D02*
X113391905Y-90252381D01*
X112553810Y-90442857D02*
X113125238Y-90633333D01*
X113125238Y-90138095D01*
X113087143Y-89833333D02*
X113087143Y-89223809D01*
X113391905Y-88842857D02*
X112591905Y-88842857D01*
X112591905Y-88538095D01*
X112630000Y-88461904D01*
X112668095Y-88423809D01*
X112744286Y-88385714D01*
X112858571Y-88385714D01*
X112934762Y-88423809D01*
X112972857Y-88461904D01*
X113010952Y-88538095D01*
X113010952Y-88842857D01*
X113391905Y-88042857D02*
X112591905Y-88042857D01*
X113391905Y-87661905D02*
X112591905Y-87661905D01*
X113391905Y-87204762D01*
X112591905Y-87204762D01*
X136988571Y-90252381D02*
X137521905Y-90252381D01*
X136683810Y-90442857D02*
X137255238Y-90633333D01*
X137255238Y-90138095D01*
X137217143Y-89833333D02*
X137217143Y-89223809D01*
X137521905Y-88842857D02*
X136721905Y-88842857D01*
X136721905Y-88538095D01*
X136760000Y-88461904D01*
X136798095Y-88423809D01*
X136874286Y-88385714D01*
X136988571Y-88385714D01*
X137064762Y-88423809D01*
X137102857Y-88461904D01*
X137140952Y-88538095D01*
X137140952Y-88842857D01*
X137521905Y-88042857D02*
X136721905Y-88042857D01*
X137521905Y-87661905D02*
X136721905Y-87661905D01*
X137521905Y-87204762D01*
X136721905Y-87204762D01*
X89998571Y-90252381D02*
X90531905Y-90252381D01*
X89693810Y-90442857D02*
X90265238Y-90633333D01*
X90265238Y-90138095D01*
X90227143Y-89833333D02*
X90227143Y-89223809D01*
X90531905Y-88842857D02*
X89731905Y-88842857D01*
X89731905Y-88538095D01*
X89770000Y-88461904D01*
X89808095Y-88423809D01*
X89884286Y-88385714D01*
X89998571Y-88385714D01*
X90074762Y-88423809D01*
X90112857Y-88461904D01*
X90150952Y-88538095D01*
X90150952Y-88842857D01*
X90531905Y-88042857D02*
X89731905Y-88042857D01*
X90531905Y-87661905D02*
X89731905Y-87661905D01*
X90531905Y-87204762D01*
X89731905Y-87204762D01*
X143948095Y-117608572D02*
X143948095Y-118103810D01*
X143643333Y-117837143D01*
X143643333Y-117951429D01*
X143605238Y-118027619D01*
X143567143Y-118065715D01*
X143490952Y-118103810D01*
X143300476Y-118103810D01*
X143224286Y-118065715D01*
X143186190Y-118027619D01*
X143148095Y-117951429D01*
X143148095Y-117722857D01*
X143186190Y-117646667D01*
X143224286Y-117608572D01*
X143452857Y-118446667D02*
X143452857Y-119056191D01*
X143148095Y-119437143D02*
X143948095Y-119437143D01*
X143948095Y-119741905D01*
X143910000Y-119818096D01*
X143871905Y-119856191D01*
X143795714Y-119894286D01*
X143681429Y-119894286D01*
X143605238Y-119856191D01*
X143567143Y-119818096D01*
X143529048Y-119741905D01*
X143529048Y-119437143D01*
X143148095Y-120237143D02*
X143948095Y-120237143D01*
X143148095Y-120618095D02*
X143948095Y-120618095D01*
X143148095Y-121075238D01*
X143948095Y-121075238D01*
X147758095Y-87128572D02*
X147758095Y-87623810D01*
X147453333Y-87357143D01*
X147453333Y-87471429D01*
X147415238Y-87547619D01*
X147377143Y-87585715D01*
X147300952Y-87623810D01*
X147110476Y-87623810D01*
X147034286Y-87585715D01*
X146996190Y-87547619D01*
X146958095Y-87471429D01*
X146958095Y-87242857D01*
X146996190Y-87166667D01*
X147034286Y-87128572D01*
X147262857Y-87966667D02*
X147262857Y-88576191D01*
X146958095Y-88957143D02*
X147758095Y-88957143D01*
X147758095Y-89261905D01*
X147720000Y-89338096D01*
X147681905Y-89376191D01*
X147605714Y-89414286D01*
X147491429Y-89414286D01*
X147415238Y-89376191D01*
X147377143Y-89338096D01*
X147339048Y-89261905D01*
X147339048Y-88957143D01*
X146958095Y-89757143D02*
X147758095Y-89757143D01*
X146958095Y-90138095D02*
X147758095Y-90138095D01*
X146958095Y-90595238D01*
X147758095Y-90595238D01*
X143948095Y-101098572D02*
X143948095Y-101593810D01*
X143643333Y-101327143D01*
X143643333Y-101441429D01*
X143605238Y-101517619D01*
X143567143Y-101555715D01*
X143490952Y-101593810D01*
X143300476Y-101593810D01*
X143224286Y-101555715D01*
X143186190Y-101517619D01*
X143148095Y-101441429D01*
X143148095Y-101212857D01*
X143186190Y-101136667D01*
X143224286Y-101098572D01*
X143452857Y-101936667D02*
X143452857Y-102546191D01*
X143148095Y-102927143D02*
X143948095Y-102927143D01*
X143948095Y-103231905D01*
X143910000Y-103308096D01*
X143871905Y-103346191D01*
X143795714Y-103384286D01*
X143681429Y-103384286D01*
X143605238Y-103346191D01*
X143567143Y-103308096D01*
X143529048Y-103231905D01*
X143529048Y-102927143D01*
X143148095Y-103727143D02*
X143948095Y-103727143D01*
X143148095Y-104108095D02*
X143948095Y-104108095D01*
X143148095Y-104565238D01*
X143948095Y-104565238D01*
X100768095Y-87128572D02*
X100768095Y-87623810D01*
X100463333Y-87357143D01*
X100463333Y-87471429D01*
X100425238Y-87547619D01*
X100387143Y-87585715D01*
X100310952Y-87623810D01*
X100120476Y-87623810D01*
X100044286Y-87585715D01*
X100006190Y-87547619D01*
X99968095Y-87471429D01*
X99968095Y-87242857D01*
X100006190Y-87166667D01*
X100044286Y-87128572D01*
X100272857Y-87966667D02*
X100272857Y-88576191D01*
X99968095Y-88957143D02*
X100768095Y-88957143D01*
X100768095Y-89261905D01*
X100730000Y-89338096D01*
X100691905Y-89376191D01*
X100615714Y-89414286D01*
X100501429Y-89414286D01*
X100425238Y-89376191D01*
X100387143Y-89338096D01*
X100349048Y-89261905D01*
X100349048Y-88957143D01*
X99968095Y-89757143D02*
X100768095Y-89757143D01*
X99968095Y-90138095D02*
X100768095Y-90138095D01*
X99968095Y-90595238D01*
X100768095Y-90595238D01*
X76968572Y-88461905D02*
X77463810Y-88461905D01*
X77197143Y-88766667D01*
X77311429Y-88766667D01*
X77387619Y-88804762D01*
X77425715Y-88842857D01*
X77463810Y-88919048D01*
X77463810Y-89109524D01*
X77425715Y-89185714D01*
X77387619Y-89223810D01*
X77311429Y-89261905D01*
X77082857Y-89261905D01*
X77006667Y-89223810D01*
X76968572Y-89185714D01*
X77806667Y-88957143D02*
X78416191Y-88957143D01*
X78797143Y-89261905D02*
X78797143Y-88461905D01*
X79101905Y-88461905D01*
X79178096Y-88500000D01*
X79216191Y-88538095D01*
X79254286Y-88614286D01*
X79254286Y-88728571D01*
X79216191Y-88804762D01*
X79178096Y-88842857D01*
X79101905Y-88880952D01*
X78797143Y-88880952D01*
X79597143Y-89261905D02*
X79597143Y-88461905D01*
X79978095Y-89261905D02*
X79978095Y-88461905D01*
X80435238Y-89261905D01*
X80435238Y-88461905D01*
X68497619Y-91268571D02*
X68497619Y-91801905D01*
X68307143Y-90963810D02*
X68116667Y-91535238D01*
X68611905Y-91535238D01*
X68916667Y-91497143D02*
X69526191Y-91497143D01*
X69907143Y-91801905D02*
X69907143Y-91001905D01*
X70211905Y-91001905D01*
X70288096Y-91040000D01*
X70326191Y-91078095D01*
X70364286Y-91154286D01*
X70364286Y-91268571D01*
X70326191Y-91344762D01*
X70288096Y-91382857D01*
X70211905Y-91420952D01*
X69907143Y-91420952D01*
X70707143Y-91801905D02*
X70707143Y-91001905D01*
X71088095Y-91801905D02*
X71088095Y-91001905D01*
X71545238Y-91801905D01*
X71545238Y-91001905D01*
X64825714Y-104544762D02*
X64968571Y-104592381D01*
X65206667Y-104592381D01*
X65301905Y-104544762D01*
X65349524Y-104497143D01*
X65397143Y-104401905D01*
X65397143Y-104306667D01*
X65349524Y-104211429D01*
X65301905Y-104163810D01*
X65206667Y-104116190D01*
X65016190Y-104068571D01*
X64920952Y-104020952D01*
X64873333Y-103973333D01*
X64825714Y-103878095D01*
X64825714Y-103782857D01*
X64873333Y-103687619D01*
X64920952Y-103640000D01*
X65016190Y-103592381D01*
X65254286Y-103592381D01*
X65397143Y-103640000D01*
X65825714Y-104592381D02*
X65825714Y-103592381D01*
X66063809Y-103592381D01*
X66206667Y-103640000D01*
X66301905Y-103735238D01*
X66349524Y-103830476D01*
X66397143Y-104020952D01*
X66397143Y-104163810D01*
X66349524Y-104354286D01*
X66301905Y-104449524D01*
X66206667Y-104544762D01*
X66063809Y-104592381D01*
X65825714Y-104592381D01*
X66778095Y-104306667D02*
X67254286Y-104306667D01*
X66682857Y-104592381D02*
X67016190Y-103592381D01*
X67349524Y-104592381D01*
X65278096Y-108720000D02*
X65182858Y-108672381D01*
X65040001Y-108672381D01*
X64897143Y-108720000D01*
X64801905Y-108815238D01*
X64754286Y-108910476D01*
X64706667Y-109100952D01*
X64706667Y-109243810D01*
X64754286Y-109434286D01*
X64801905Y-109529524D01*
X64897143Y-109624762D01*
X65040001Y-109672381D01*
X65135239Y-109672381D01*
X65278096Y-109624762D01*
X65325715Y-109577143D01*
X65325715Y-109243810D01*
X65135239Y-109243810D01*
X65754286Y-109672381D02*
X65754286Y-108672381D01*
X66325715Y-109672381D01*
X66325715Y-108672381D01*
X66801905Y-109672381D02*
X66801905Y-108672381D01*
X67040000Y-108672381D01*
X67182858Y-108720000D01*
X67278096Y-108815238D01*
X67325715Y-108910476D01*
X67373334Y-109100952D01*
X67373334Y-109243810D01*
X67325715Y-109434286D01*
X67278096Y-109529524D01*
X67182858Y-109624762D01*
X67040000Y-109672381D01*
X66801905Y-109672381D01*
X64849524Y-107084762D02*
X64992381Y-107132381D01*
X65230477Y-107132381D01*
X65325715Y-107084762D01*
X65373334Y-107037143D01*
X65420953Y-106941905D01*
X65420953Y-106846667D01*
X65373334Y-106751429D01*
X65325715Y-106703810D01*
X65230477Y-106656190D01*
X65040000Y-106608571D01*
X64944762Y-106560952D01*
X64897143Y-106513333D01*
X64849524Y-106418095D01*
X64849524Y-106322857D01*
X64897143Y-106227619D01*
X64944762Y-106180000D01*
X65040000Y-106132381D01*
X65278096Y-106132381D01*
X65420953Y-106180000D01*
X66420953Y-107037143D02*
X66373334Y-107084762D01*
X66230477Y-107132381D01*
X66135239Y-107132381D01*
X65992381Y-107084762D01*
X65897143Y-106989524D01*
X65849524Y-106894286D01*
X65801905Y-106703810D01*
X65801905Y-106560952D01*
X65849524Y-106370476D01*
X65897143Y-106275238D01*
X65992381Y-106180000D01*
X66135239Y-106132381D01*
X66230477Y-106132381D01*
X66373334Y-106180000D01*
X66420953Y-106227619D01*
X67325715Y-107132381D02*
X66849524Y-107132381D01*
X66849524Y-106132381D01*
X89987619Y-129992381D02*
X89654285Y-129516190D01*
X89416190Y-129992381D02*
X89416190Y-128992381D01*
X89797143Y-128992381D01*
X89892381Y-129040000D01*
X89940000Y-129087619D01*
X89987619Y-129182857D01*
X89987619Y-129325714D01*
X89940000Y-129420952D01*
X89892381Y-129468571D01*
X89797143Y-129516190D01*
X89416190Y-129516190D01*
X90416190Y-129468571D02*
X90749524Y-129468571D01*
X90892381Y-129992381D02*
X90416190Y-129992381D01*
X90416190Y-128992381D01*
X90892381Y-128992381D01*
X91273333Y-129944762D02*
X91416190Y-129992381D01*
X91654286Y-129992381D01*
X91749524Y-129944762D01*
X91797143Y-129897143D01*
X91844762Y-129801905D01*
X91844762Y-129706667D01*
X91797143Y-129611429D01*
X91749524Y-129563810D01*
X91654286Y-129516190D01*
X91463809Y-129468571D01*
X91368571Y-129420952D01*
X91320952Y-129373333D01*
X91273333Y-129278095D01*
X91273333Y-129182857D01*
X91320952Y-129087619D01*
X91368571Y-129040000D01*
X91463809Y-128992381D01*
X91701905Y-128992381D01*
X91844762Y-129040000D01*
X92273333Y-129468571D02*
X92606667Y-129468571D01*
X92749524Y-129992381D02*
X92273333Y-129992381D01*
X92273333Y-128992381D01*
X92749524Y-128992381D01*
X93035238Y-128992381D02*
X93606667Y-128992381D01*
X93320952Y-129992381D02*
X93320952Y-128992381D01*
D12*
X84106606Y-108628571D02*
X84294106Y-107128571D01*
X84749463Y-108628571D02*
X84847677Y-107842857D01*
X84794105Y-107700000D01*
X84660177Y-107628571D01*
X84445892Y-107628571D01*
X84294105Y-107700000D01*
X84213748Y-107771429D01*
X85374463Y-107628571D02*
X85945892Y-107628571D01*
X85651249Y-107128571D02*
X85490534Y-108414286D01*
X85544105Y-108557143D01*
X85678035Y-108628571D01*
X85820892Y-108628571D01*
X86231606Y-107628571D02*
X86803035Y-107628571D01*
X86508392Y-107128571D02*
X86347677Y-108414286D01*
X86401248Y-108557143D01*
X86535178Y-108628571D01*
X86678035Y-108628571D01*
X87303035Y-107628571D02*
X87115535Y-109128571D01*
X87294106Y-107700000D02*
X87445892Y-107628571D01*
X87731606Y-107628571D01*
X87865534Y-107700000D01*
X87928034Y-107771429D01*
X87981606Y-107914286D01*
X87928035Y-108342857D01*
X87838749Y-108485714D01*
X87758391Y-108557143D01*
X87606606Y-108628571D01*
X87320892Y-108628571D01*
X87186963Y-108557143D01*
X88472677Y-108557143D02*
X88606606Y-108628571D01*
X88892321Y-108628571D01*
X89044106Y-108557143D01*
X89133391Y-108414286D01*
X89142320Y-108342857D01*
X89088749Y-108200000D01*
X88954821Y-108128571D01*
X88740535Y-108128571D01*
X88606606Y-108057143D01*
X88553034Y-107914286D01*
X88561963Y-107842857D01*
X88651249Y-107700000D01*
X88803035Y-107628571D01*
X89017321Y-107628571D01*
X89151249Y-107700000D01*
X89767321Y-108485714D02*
X89829820Y-108557143D01*
X89749464Y-108628571D01*
X89686963Y-108557143D01*
X89767321Y-108485714D01*
X89749464Y-108628571D01*
X89865535Y-107700000D02*
X89928034Y-107771429D01*
X89847678Y-107842857D01*
X89785177Y-107771429D01*
X89865535Y-107700000D01*
X89847678Y-107842857D01*
X91731606Y-107057143D02*
X90204821Y-108985714D01*
X93303035Y-107057143D02*
X91776250Y-108985714D01*
X94374465Y-107628571D02*
X94222679Y-108842857D01*
X94133393Y-108985714D01*
X94053036Y-109057143D01*
X93901251Y-109128571D01*
X93686965Y-109128571D01*
X93553036Y-109057143D01*
X94258393Y-108557143D02*
X94106608Y-108628571D01*
X93820894Y-108628571D01*
X93686964Y-108557143D01*
X93624465Y-108485714D01*
X93570893Y-108342857D01*
X93624464Y-107914286D01*
X93713750Y-107771429D01*
X93794107Y-107700000D01*
X93945894Y-107628571D01*
X94231608Y-107628571D01*
X94365536Y-107700000D01*
X94963751Y-108628571D02*
X95088751Y-107628571D01*
X95151251Y-107128571D02*
X95070893Y-107200000D01*
X95133393Y-107271429D01*
X95213750Y-107200000D01*
X95151251Y-107128571D01*
X95133393Y-107271429D01*
X95588751Y-107628571D02*
X96160180Y-107628571D01*
X95865537Y-107128571D02*
X95704822Y-108414286D01*
X95758393Y-108557143D01*
X95892323Y-108628571D01*
X96035180Y-108628571D01*
X96535180Y-108628571D02*
X96722680Y-107128571D01*
X97178037Y-108628571D02*
X97276251Y-107842857D01*
X97222679Y-107700000D01*
X97088751Y-107628571D01*
X96874466Y-107628571D01*
X96722679Y-107700000D01*
X96642322Y-107771429D01*
X98660180Y-107628571D02*
X98535180Y-108628571D01*
X98017323Y-107628571D02*
X97919108Y-108414286D01*
X97972679Y-108557143D01*
X98106609Y-108628571D01*
X98320894Y-108628571D01*
X98472679Y-108557143D01*
X98553037Y-108485714D01*
X99249466Y-108628571D02*
X99436966Y-107128571D01*
X99365537Y-107700000D02*
X99517323Y-107628571D01*
X99803037Y-107628571D01*
X99936965Y-107700000D01*
X99999465Y-107771429D01*
X100053037Y-107914286D01*
X99999466Y-108342857D01*
X99910180Y-108485714D01*
X99829822Y-108557143D01*
X99678037Y-108628571D01*
X99392323Y-108628571D01*
X99258394Y-108557143D01*
X100624466Y-108485714D02*
X100686965Y-108557143D01*
X100606609Y-108628571D01*
X100544108Y-108557143D01*
X100624466Y-108485714D01*
X100606609Y-108628571D01*
X101972680Y-108557143D02*
X101820895Y-108628571D01*
X101535181Y-108628571D01*
X101401251Y-108557143D01*
X101338752Y-108485714D01*
X101285180Y-108342857D01*
X101338751Y-107914286D01*
X101428037Y-107771429D01*
X101508394Y-107700000D01*
X101660181Y-107628571D01*
X101945895Y-107628571D01*
X102079823Y-107700000D01*
X102820895Y-108628571D02*
X102686965Y-108557143D01*
X102624466Y-108485714D01*
X102570894Y-108342857D01*
X102624465Y-107914286D01*
X102713751Y-107771429D01*
X102794108Y-107700000D01*
X102945895Y-107628571D01*
X103160180Y-107628571D01*
X103294108Y-107700000D01*
X103356608Y-107771429D01*
X103410180Y-107914286D01*
X103356609Y-108342857D01*
X103267323Y-108485714D01*
X103186965Y-108557143D01*
X103035180Y-108628571D01*
X102820895Y-108628571D01*
X103963752Y-108628571D02*
X104088752Y-107628571D01*
X104070894Y-107771429D02*
X104151251Y-107700000D01*
X104303038Y-107628571D01*
X104517323Y-107628571D01*
X104651251Y-107700000D01*
X104704823Y-107842857D01*
X104606609Y-108628571D01*
X104704823Y-107842857D02*
X104794109Y-107700000D01*
X104945895Y-107628571D01*
X105160180Y-107628571D01*
X105294109Y-107700000D01*
X105347680Y-107842857D01*
X105249466Y-108628571D01*
X107231608Y-107057143D02*
X105704823Y-108985714D01*
X107660181Y-107628571D02*
X107499466Y-108914286D01*
X107410180Y-109057143D01*
X107258395Y-109128571D01*
X107186967Y-109128571D01*
X107722681Y-107128571D02*
X107642323Y-107200000D01*
X107704823Y-107271429D01*
X107785180Y-107200000D01*
X107722681Y-107128571D01*
X107704823Y-107271429D01*
X108463753Y-108628571D02*
X108329823Y-108557143D01*
X108267324Y-108485714D01*
X108213752Y-108342857D01*
X108267323Y-107914286D01*
X108356609Y-107771429D01*
X108436966Y-107700000D01*
X108588753Y-107628571D01*
X108803038Y-107628571D01*
X108936966Y-107700000D01*
X108999466Y-107771429D01*
X109053038Y-107914286D01*
X108999467Y-108342857D01*
X108910181Y-108485714D01*
X108829823Y-108557143D01*
X108678038Y-108628571D01*
X108463753Y-108628571D01*
X110258395Y-108557143D02*
X110106610Y-108628571D01*
X109820896Y-108628571D01*
X109686966Y-108557143D01*
X109624467Y-108485714D01*
X109570895Y-108342857D01*
X109624466Y-107914286D01*
X109713752Y-107771429D01*
X109794109Y-107700000D01*
X109945896Y-107628571D01*
X110231610Y-107628571D01*
X110365538Y-107700000D01*
X110892324Y-108628571D02*
X111079824Y-107128571D01*
X111106609Y-108057143D02*
X111463752Y-108628571D01*
X111588752Y-107628571D02*
X110945895Y-108200000D01*
X112686966Y-108557143D02*
X112535181Y-108628571D01*
X112249467Y-108628571D01*
X112115538Y-108557143D01*
X112061966Y-108414286D01*
X112133395Y-107842857D01*
X112222681Y-107700000D01*
X112374467Y-107628571D01*
X112660181Y-107628571D01*
X112794109Y-107700000D01*
X112847681Y-107842857D01*
X112829824Y-107985714D01*
X112097681Y-108128571D01*
X113517324Y-107628571D02*
X113356609Y-108914286D01*
X113267323Y-109057143D01*
X113115538Y-109128571D01*
X113044110Y-109128571D01*
X113579824Y-107128571D02*
X113499466Y-107200000D01*
X113561966Y-107271429D01*
X113642323Y-107200000D01*
X113579824Y-107128571D01*
X113561966Y-107271429D01*
X115374466Y-107057143D02*
X113847681Y-108985714D01*
X115588753Y-107628571D02*
X116160182Y-107628571D01*
X115678039Y-108628571D02*
X115838753Y-107342857D01*
X115928038Y-107200000D01*
X116079825Y-107128571D01*
X116222682Y-107128571D01*
X117178039Y-108628571D02*
X117276253Y-107842857D01*
X117222681Y-107700000D01*
X117088753Y-107628571D01*
X116803039Y-107628571D01*
X116651253Y-107700000D01*
X117186967Y-108557143D02*
X117035182Y-108628571D01*
X116678039Y-108628571D01*
X116544110Y-108557143D01*
X116490538Y-108414286D01*
X116508395Y-108271429D01*
X116597682Y-108128571D01*
X116749467Y-108057143D01*
X117106610Y-108057143D01*
X117258396Y-107985714D01*
X118017325Y-107628571D02*
X117892325Y-108628571D01*
X117999467Y-107771429D02*
X118079824Y-107700000D01*
X118231611Y-107628571D01*
X118445896Y-107628571D01*
X118579824Y-107700000D01*
X118633396Y-107842857D01*
X118535182Y-108628571D01*
X119901253Y-108557143D02*
X119749468Y-108628571D01*
X119463754Y-108628571D01*
X119329824Y-108557143D01*
X119267325Y-108485714D01*
X119213753Y-108342857D01*
X119267324Y-107914286D01*
X119356610Y-107771429D01*
X119436967Y-107700000D01*
X119588754Y-107628571D01*
X119874468Y-107628571D01*
X120008396Y-107700000D01*
X120445896Y-107628571D02*
X121017325Y-107628571D01*
X120722682Y-107128571D02*
X120561967Y-108414286D01*
X120615538Y-108557143D01*
X120749468Y-108628571D01*
X120892325Y-108628571D01*
X121606611Y-108628571D02*
X121472681Y-108557143D01*
X121419110Y-108414286D01*
X121579825Y-107128571D01*
D13*
X68785950Y-103774762D02*
X69035950Y-101774762D01*
X68940712Y-102536667D02*
X69143093Y-102441429D01*
X69524045Y-102441429D01*
X69702617Y-102536667D01*
X69785950Y-102631905D01*
X69857378Y-102822381D01*
X69785950Y-103393810D01*
X69666902Y-103584286D01*
X69559760Y-103679524D01*
X69357379Y-103774762D01*
X68976427Y-103774762D01*
X68797855Y-103679524D01*
X70571664Y-102441429D02*
X70881189Y-103774762D01*
X71524045Y-102441429D02*
X70881189Y-103774762D01*
X70631189Y-104250952D01*
X70524045Y-104346190D01*
X70321664Y-104441429D01*
X72143093Y-103584286D02*
X72226428Y-103679524D01*
X72119284Y-103774762D01*
X72035951Y-103679524D01*
X72143093Y-103584286D01*
X72119284Y-103774762D01*
X72274046Y-102536667D02*
X72357380Y-102631905D01*
X72250236Y-102727143D01*
X72166903Y-102631905D01*
X72274046Y-102536667D01*
X72250236Y-102727143D01*
X75416904Y-101774762D02*
X75238332Y-103203333D01*
X75107380Y-103489048D01*
X74893095Y-103679524D01*
X74595475Y-103774762D01*
X74404999Y-103774762D01*
X76405000Y-103774762D02*
X76226429Y-103679524D01*
X76143094Y-103584286D01*
X76071666Y-103393810D01*
X76143094Y-102822381D01*
X76262142Y-102631905D01*
X76369286Y-102536667D01*
X76571666Y-102441429D01*
X76857380Y-102441429D01*
X77035952Y-102536667D01*
X77119285Y-102631905D01*
X77190713Y-102822381D01*
X77119285Y-103393810D01*
X77000237Y-103584286D01*
X76893095Y-103679524D01*
X76690714Y-103774762D01*
X76405000Y-103774762D01*
X78785952Y-103774762D02*
X78916904Y-102727143D01*
X78845476Y-102536667D01*
X78666904Y-102441429D01*
X78285952Y-102441429D01*
X78083571Y-102536667D01*
X78797857Y-103679524D02*
X78595476Y-103774762D01*
X78119286Y-103774762D01*
X77940714Y-103679524D01*
X77869285Y-103489048D01*
X77893095Y-103298571D01*
X78012142Y-103108095D01*
X78214524Y-103012857D01*
X78690714Y-103012857D01*
X78893095Y-102917619D01*
X79738333Y-103774762D02*
X79988333Y-101774762D01*
X80024048Y-103012857D02*
X80500238Y-103774762D01*
X80666904Y-102441429D02*
X79809761Y-103203333D01*
X81357381Y-103774762D02*
X81524047Y-102441429D01*
X81607381Y-101774762D02*
X81500238Y-101870000D01*
X81583571Y-101965238D01*
X81690715Y-101870000D01*
X81607381Y-101774762D01*
X81583571Y-101965238D01*
X82309762Y-103774762D02*
X82476428Y-102441429D01*
X82452619Y-102631905D02*
X82559763Y-102536667D01*
X82762143Y-102441429D01*
X83047857Y-102441429D01*
X83226429Y-102536667D01*
X83297857Y-102727143D01*
X83166905Y-103774762D01*
X83297857Y-102727143D02*
X83416905Y-102536667D01*
X83619286Y-102441429D01*
X83905000Y-102441429D01*
X84083572Y-102536667D01*
X84155000Y-102727143D01*
X84024048Y-103774762D01*
X87321668Y-101774762D02*
X87143096Y-103203333D01*
X87012144Y-103489048D01*
X86797859Y-103679524D01*
X86500239Y-103774762D01*
X86309763Y-103774762D01*
X88881192Y-103774762D02*
X89012144Y-102727143D01*
X88940716Y-102536667D01*
X88762144Y-102441429D01*
X88381192Y-102441429D01*
X88178811Y-102536667D01*
X88893097Y-103679524D02*
X88690716Y-103774762D01*
X88214526Y-103774762D01*
X88035954Y-103679524D01*
X87964525Y-103489048D01*
X87988335Y-103298571D01*
X88107382Y-103108095D01*
X88309764Y-103012857D01*
X88785954Y-103012857D01*
X88988335Y-102917619D01*
X90119288Y-103774762D02*
X89940717Y-103679524D01*
X89869287Y-103489048D01*
X90083573Y-101774762D01*
X91738335Y-103774762D02*
X91869287Y-102727143D01*
X91797859Y-102536667D01*
X91619287Y-102441429D01*
X91238335Y-102441429D01*
X91035954Y-102536667D01*
X91750240Y-103679524D02*
X91547859Y-103774762D01*
X91071669Y-103774762D01*
X90893097Y-103679524D01*
X90821668Y-103489048D01*
X90845478Y-103298571D01*
X90964525Y-103108095D01*
X91166907Y-103012857D01*
X91643097Y-103012857D01*
X91845478Y-102917619D01*
X92857382Y-102441429D02*
X92607382Y-104441429D01*
X92845478Y-102536667D02*
X93047859Y-102441429D01*
X93428811Y-102441429D01*
X93607383Y-102536667D01*
X93690716Y-102631905D01*
X93762144Y-102822381D01*
X93690716Y-103393810D01*
X93571668Y-103584286D01*
X93464526Y-103679524D01*
X93262145Y-103774762D01*
X92881193Y-103774762D01*
X92702621Y-103679524D01*
D14*
X70208571Y-96305714D02*
X69208571Y-96305714D01*
X69208571Y-97877143D02*
X69208571Y-94877143D01*
X70637142Y-94877143D01*
X73065714Y-97877143D02*
X73065714Y-96305714D01*
X72922857Y-96020000D01*
X72637143Y-95877143D01*
X72065714Y-95877143D01*
X71780000Y-96020000D01*
X73065714Y-97734286D02*
X72780000Y-97877143D01*
X72065714Y-97877143D01*
X71780000Y-97734286D01*
X71637143Y-97448571D01*
X71637143Y-97162857D01*
X71780000Y-96877143D01*
X72065714Y-96734286D01*
X72780000Y-96734286D01*
X73065714Y-96591429D01*
X74494286Y-95877143D02*
X74494286Y-97877143D01*
X74494286Y-96162857D02*
X74637143Y-96020000D01*
X74922857Y-95877143D01*
X75351429Y-95877143D01*
X75637143Y-96020000D01*
X75780000Y-96305714D01*
X75780000Y-97877143D01*
X78494286Y-97734286D02*
X78208572Y-97877143D01*
X77637143Y-97877143D01*
X77351429Y-97734286D01*
X77208572Y-97591429D01*
X77065715Y-97305714D01*
X77065715Y-96448571D01*
X77208572Y-96162857D01*
X77351429Y-96020000D01*
X77637143Y-95877143D01*
X78208572Y-95877143D01*
X78494286Y-96020000D01*
X79351429Y-95877143D02*
X80494286Y-95877143D01*
X79780001Y-94877143D02*
X79780001Y-97448571D01*
X79922858Y-97734286D01*
X80208572Y-97877143D01*
X80494286Y-97877143D01*
X81922858Y-97877143D02*
X81637144Y-97734286D01*
X81494287Y-97448571D01*
X81494287Y-94877143D01*
X85065715Y-95877143D02*
X85780001Y-97877143D01*
X86494287Y-95877143D01*
X88208572Y-94877143D02*
X88494287Y-94877143D01*
X88780001Y-95020000D01*
X88922858Y-95162857D01*
X89065715Y-95448571D01*
X89208572Y-96020000D01*
X89208572Y-96734286D01*
X89065715Y-97305714D01*
X88922858Y-97591429D01*
X88780001Y-97734286D01*
X88494287Y-97877143D01*
X88208572Y-97877143D01*
X87922858Y-97734286D01*
X87780001Y-97591429D01*
X87637144Y-97305714D01*
X87494287Y-96734286D01*
X87494287Y-96020000D01*
X87637144Y-95448571D01*
X87780001Y-95162857D01*
X87922858Y-95020000D01*
X88208572Y-94877143D01*
X90494287Y-97591429D02*
X90637144Y-97734286D01*
X90494287Y-97877143D01*
X90351430Y-97734286D01*
X90494287Y-97591429D01*
X90494287Y-97877143D01*
X93494286Y-97877143D02*
X91780001Y-97877143D01*
X92637143Y-97877143D02*
X92637143Y-94877143D01*
X92351429Y-95305714D01*
X92065715Y-95591429D01*
X91780001Y-95734286D01*
D15*
X71120000Y-90170000D02*
X76200000Y-90170000D01*
X76200000Y-90170000D02*
X76200000Y-87630000D01*
X76200000Y-87630000D02*
X71120000Y-87630000D01*
X68300000Y-87350000D02*
X69850000Y-87350000D01*
X71120000Y-87630000D02*
X71120000Y-90170000D01*
X69850000Y-90450000D02*
X68300000Y-90450000D01*
X68300000Y-90450000D02*
X68300000Y-87350000D01*
X105660000Y-124440000D02*
X102660000Y-124440000D01*
X102660000Y-121940000D02*
X105660000Y-121940000D01*
X124710000Y-99040000D02*
X121710000Y-99040000D01*
X121710000Y-96540000D02*
X124710000Y-96540000D01*
X73410000Y-91460000D02*
X76410000Y-91460000D01*
X76410000Y-93960000D02*
X73410000Y-93960000D01*
X96770000Y-93960000D02*
X93770000Y-93960000D01*
X93770000Y-91460000D02*
X96770000Y-91460000D01*
X119130000Y-91460000D02*
X122130000Y-91460000D01*
X122130000Y-93960000D02*
X119130000Y-93960000D01*
X143260000Y-91460000D02*
X146260000Y-91460000D01*
X146260000Y-93960000D02*
X143260000Y-93960000D01*
X138410000Y-100080000D02*
X138410000Y-103080000D01*
X135910000Y-103080000D02*
X135910000Y-100080000D01*
X137140000Y-116590000D02*
X137140000Y-119590000D01*
X134640000Y-119590000D02*
X134640000Y-116590000D01*
X103120000Y-129520000D02*
X100120000Y-129520000D01*
X100120000Y-127020000D02*
X103120000Y-127020000D01*
X117860000Y-127020000D02*
X120860000Y-127020000D01*
X120860000Y-129520000D02*
X117860000Y-129520000D01*
D16*
X81300000Y-74930000D02*
X78340000Y-74930000D01*
X71100000Y-74930000D02*
X76600000Y-74930000D01*
X72390000Y-79820000D02*
X77470000Y-79820000D01*
X77470000Y-79610000D02*
X81300000Y-79610000D01*
X71100000Y-79610000D02*
X72390000Y-79610000D01*
X77470000Y-80010000D02*
X81300000Y-80010000D01*
X71100000Y-80010000D02*
X72390000Y-80010000D01*
X72390000Y-78875000D02*
X72390000Y-80770000D01*
X77470000Y-78875000D02*
X77470000Y-80770000D01*
X72390000Y-78875000D02*
X77470000Y-78875000D01*
X71100000Y-74930000D02*
X71100000Y-80770000D01*
X71100000Y-80770000D02*
X81300000Y-80770000D01*
X81300000Y-80770000D02*
X81300000Y-74930000D01*
X78740000Y-76835000D02*
X79375000Y-76200000D01*
X79375000Y-76200000D02*
X80645000Y-76200000D01*
X80645000Y-76200000D02*
X81280000Y-76835000D01*
X81280000Y-76835000D02*
X81280000Y-78105000D01*
X81280000Y-78105000D02*
X80645000Y-78740000D01*
X80645000Y-78740000D02*
X79375000Y-78740000D01*
X79375000Y-78740000D02*
X78740000Y-78105000D01*
X73660000Y-76835000D02*
X74295000Y-76200000D01*
X74295000Y-76200000D02*
X75565000Y-76200000D01*
X75565000Y-76200000D02*
X76200000Y-76835000D01*
X76200000Y-76835000D02*
X76835000Y-76200000D01*
X76835000Y-76200000D02*
X78105000Y-76200000D01*
X78105000Y-76200000D02*
X78740000Y-76835000D01*
X78740000Y-78105000D02*
X78105000Y-78740000D01*
X78105000Y-78740000D02*
X76835000Y-78740000D01*
X76835000Y-78740000D02*
X76200000Y-78105000D01*
X76200000Y-78105000D02*
X75565000Y-78740000D01*
X75565000Y-78740000D02*
X74295000Y-78740000D01*
X74295000Y-78740000D02*
X73660000Y-78105000D01*
X71120000Y-76835000D02*
X71755000Y-76200000D01*
X71755000Y-76200000D02*
X73025000Y-76200000D01*
X73025000Y-76200000D02*
X73660000Y-76835000D01*
X73660000Y-78105000D02*
X73025000Y-78740000D01*
X73025000Y-78740000D02*
X71755000Y-78740000D01*
X71755000Y-78740000D02*
X71120000Y-78105000D01*
X71120000Y-78105000D02*
X71120000Y-76835000D01*
X104160000Y-74930000D02*
X101200000Y-74930000D01*
X93960000Y-74930000D02*
X99460000Y-74930000D01*
X95250000Y-79820000D02*
X100330000Y-79820000D01*
X100330000Y-79610000D02*
X104160000Y-79610000D01*
X93960000Y-79610000D02*
X95250000Y-79610000D01*
X100330000Y-80010000D02*
X104160000Y-80010000D01*
X93960000Y-80010000D02*
X95250000Y-80010000D01*
X95250000Y-78875000D02*
X95250000Y-80770000D01*
X100330000Y-78875000D02*
X100330000Y-80770000D01*
X95250000Y-78875000D02*
X100330000Y-78875000D01*
X93960000Y-74930000D02*
X93960000Y-80770000D01*
X93960000Y-80770000D02*
X104160000Y-80770000D01*
X104160000Y-80770000D02*
X104160000Y-74930000D01*
X101600000Y-76835000D02*
X102235000Y-76200000D01*
X102235000Y-76200000D02*
X103505000Y-76200000D01*
X103505000Y-76200000D02*
X104140000Y-76835000D01*
X104140000Y-76835000D02*
X104140000Y-78105000D01*
X104140000Y-78105000D02*
X103505000Y-78740000D01*
X103505000Y-78740000D02*
X102235000Y-78740000D01*
X102235000Y-78740000D02*
X101600000Y-78105000D01*
X96520000Y-76835000D02*
X97155000Y-76200000D01*
X97155000Y-76200000D02*
X98425000Y-76200000D01*
X98425000Y-76200000D02*
X99060000Y-76835000D01*
X99060000Y-76835000D02*
X99695000Y-76200000D01*
X99695000Y-76200000D02*
X100965000Y-76200000D01*
X100965000Y-76200000D02*
X101600000Y-76835000D01*
X101600000Y-78105000D02*
X100965000Y-78740000D01*
X100965000Y-78740000D02*
X99695000Y-78740000D01*
X99695000Y-78740000D02*
X99060000Y-78105000D01*
X99060000Y-78105000D02*
X98425000Y-78740000D01*
X98425000Y-78740000D02*
X97155000Y-78740000D01*
X97155000Y-78740000D02*
X96520000Y-78105000D01*
X93980000Y-76835000D02*
X94615000Y-76200000D01*
X94615000Y-76200000D02*
X95885000Y-76200000D01*
X95885000Y-76200000D02*
X96520000Y-76835000D01*
X96520000Y-78105000D02*
X95885000Y-78740000D01*
X95885000Y-78740000D02*
X94615000Y-78740000D01*
X94615000Y-78740000D02*
X93980000Y-78105000D01*
X93980000Y-78105000D02*
X93980000Y-76835000D01*
X127020000Y-74930000D02*
X124060000Y-74930000D01*
X116820000Y-74930000D02*
X122320000Y-74930000D01*
X118110000Y-79820000D02*
X123190000Y-79820000D01*
X123190000Y-79610000D02*
X127020000Y-79610000D01*
X116820000Y-79610000D02*
X118110000Y-79610000D01*
X123190000Y-80010000D02*
X127020000Y-80010000D01*
X116820000Y-80010000D02*
X118110000Y-80010000D01*
X118110000Y-78875000D02*
X118110000Y-80770000D01*
X123190000Y-78875000D02*
X123190000Y-80770000D01*
X118110000Y-78875000D02*
X123190000Y-78875000D01*
X116820000Y-74930000D02*
X116820000Y-80770000D01*
X116820000Y-80770000D02*
X127020000Y-80770000D01*
X127020000Y-80770000D02*
X127020000Y-74930000D01*
X124460000Y-76835000D02*
X125095000Y-76200000D01*
X125095000Y-76200000D02*
X126365000Y-76200000D01*
X126365000Y-76200000D02*
X127000000Y-76835000D01*
X127000000Y-76835000D02*
X127000000Y-78105000D01*
X127000000Y-78105000D02*
X126365000Y-78740000D01*
X126365000Y-78740000D02*
X125095000Y-78740000D01*
X125095000Y-78740000D02*
X124460000Y-78105000D01*
X119380000Y-76835000D02*
X120015000Y-76200000D01*
X120015000Y-76200000D02*
X121285000Y-76200000D01*
X121285000Y-76200000D02*
X121920000Y-76835000D01*
X121920000Y-76835000D02*
X122555000Y-76200000D01*
X122555000Y-76200000D02*
X123825000Y-76200000D01*
X123825000Y-76200000D02*
X124460000Y-76835000D01*
X124460000Y-78105000D02*
X123825000Y-78740000D01*
X123825000Y-78740000D02*
X122555000Y-78740000D01*
X122555000Y-78740000D02*
X121920000Y-78105000D01*
X121920000Y-78105000D02*
X121285000Y-78740000D01*
X121285000Y-78740000D02*
X120015000Y-78740000D01*
X120015000Y-78740000D02*
X119380000Y-78105000D01*
X116840000Y-76835000D02*
X117475000Y-76200000D01*
X117475000Y-76200000D02*
X118745000Y-76200000D01*
X118745000Y-76200000D02*
X119380000Y-76835000D01*
X119380000Y-78105000D02*
X118745000Y-78740000D01*
X118745000Y-78740000D02*
X117475000Y-78740000D01*
X117475000Y-78740000D02*
X116840000Y-78105000D01*
X116840000Y-78105000D02*
X116840000Y-76835000D01*
X151150000Y-74930000D02*
X148190000Y-74930000D01*
X140950000Y-74930000D02*
X146450000Y-74930000D01*
X142240000Y-79820000D02*
X147320000Y-79820000D01*
X147320000Y-79610000D02*
X151150000Y-79610000D01*
X140950000Y-79610000D02*
X142240000Y-79610000D01*
X147320000Y-80010000D02*
X151150000Y-80010000D01*
X140950000Y-80010000D02*
X142240000Y-80010000D01*
X142240000Y-78875000D02*
X142240000Y-80770000D01*
X147320000Y-78875000D02*
X147320000Y-80770000D01*
X142240000Y-78875000D02*
X147320000Y-78875000D01*
X140950000Y-74930000D02*
X140950000Y-80770000D01*
X140950000Y-80770000D02*
X151150000Y-80770000D01*
X151150000Y-80770000D02*
X151150000Y-74930000D01*
X148590000Y-76835000D02*
X149225000Y-76200000D01*
X149225000Y-76200000D02*
X150495000Y-76200000D01*
X150495000Y-76200000D02*
X151130000Y-76835000D01*
X151130000Y-76835000D02*
X151130000Y-78105000D01*
X151130000Y-78105000D02*
X150495000Y-78740000D01*
X150495000Y-78740000D02*
X149225000Y-78740000D01*
X149225000Y-78740000D02*
X148590000Y-78105000D01*
X143510000Y-76835000D02*
X144145000Y-76200000D01*
X144145000Y-76200000D02*
X145415000Y-76200000D01*
X145415000Y-76200000D02*
X146050000Y-76835000D01*
X146050000Y-76835000D02*
X146685000Y-76200000D01*
X146685000Y-76200000D02*
X147955000Y-76200000D01*
X147955000Y-76200000D02*
X148590000Y-76835000D01*
X148590000Y-78105000D02*
X147955000Y-78740000D01*
X147955000Y-78740000D02*
X146685000Y-78740000D01*
X146685000Y-78740000D02*
X146050000Y-78105000D01*
X146050000Y-78105000D02*
X145415000Y-78740000D01*
X145415000Y-78740000D02*
X144145000Y-78740000D01*
X144145000Y-78740000D02*
X143510000Y-78105000D01*
X140970000Y-76835000D02*
X141605000Y-76200000D01*
X141605000Y-76200000D02*
X142875000Y-76200000D01*
X142875000Y-76200000D02*
X143510000Y-76835000D01*
X143510000Y-78105000D02*
X142875000Y-78740000D01*
X142875000Y-78740000D02*
X141605000Y-78740000D01*
X141605000Y-78740000D02*
X140970000Y-78105000D01*
X140970000Y-78105000D02*
X140970000Y-76835000D01*
X157480000Y-107970000D02*
X157480000Y-105010000D01*
X157480000Y-97770000D02*
X157480000Y-103270000D01*
X152590000Y-99060000D02*
X152590000Y-104140000D01*
X152800000Y-104140000D02*
X152800000Y-107970000D01*
X152800000Y-97770000D02*
X152800000Y-99060000D01*
X152400000Y-104140000D02*
X152400000Y-107970000D01*
X152400000Y-97770000D02*
X152400000Y-99060000D01*
X153535000Y-99060000D02*
X151640000Y-99060000D01*
X153535000Y-104140000D02*
X151640000Y-104140000D01*
X153535000Y-99060000D02*
X153535000Y-104140000D01*
X157480000Y-97770000D02*
X151640000Y-97770000D01*
X151640000Y-97770000D02*
X151640000Y-107970000D01*
X151640000Y-107970000D02*
X157480000Y-107970000D01*
X155575000Y-105410000D02*
X156210000Y-106045000D01*
X156210000Y-106045000D02*
X156210000Y-107315000D01*
X156210000Y-107315000D02*
X155575000Y-107950000D01*
X155575000Y-107950000D02*
X154305000Y-107950000D01*
X154305000Y-107950000D02*
X153670000Y-107315000D01*
X153670000Y-107315000D02*
X153670000Y-106045000D01*
X153670000Y-106045000D02*
X154305000Y-105410000D01*
X155575000Y-100330000D02*
X156210000Y-100965000D01*
X156210000Y-100965000D02*
X156210000Y-102235000D01*
X156210000Y-102235000D02*
X155575000Y-102870000D01*
X155575000Y-102870000D02*
X156210000Y-103505000D01*
X156210000Y-103505000D02*
X156210000Y-104775000D01*
X156210000Y-104775000D02*
X155575000Y-105410000D01*
X154305000Y-105410000D02*
X153670000Y-104775000D01*
X153670000Y-104775000D02*
X153670000Y-103505000D01*
X153670000Y-103505000D02*
X154305000Y-102870000D01*
X154305000Y-102870000D02*
X153670000Y-102235000D01*
X153670000Y-102235000D02*
X153670000Y-100965000D01*
X153670000Y-100965000D02*
X154305000Y-100330000D01*
X155575000Y-97790000D02*
X156210000Y-98425000D01*
X156210000Y-98425000D02*
X156210000Y-99695000D01*
X156210000Y-99695000D02*
X155575000Y-100330000D01*
X154305000Y-100330000D02*
X153670000Y-99695000D01*
X153670000Y-99695000D02*
X153670000Y-98425000D01*
X153670000Y-98425000D02*
X154305000Y-97790000D01*
X154305000Y-97790000D02*
X155575000Y-97790000D01*
X157480000Y-124480000D02*
X157480000Y-121520000D01*
X157480000Y-114280000D02*
X157480000Y-119780000D01*
X152590000Y-115570000D02*
X152590000Y-120650000D01*
X152800000Y-120650000D02*
X152800000Y-124480000D01*
X152800000Y-114280000D02*
X152800000Y-115570000D01*
X152400000Y-120650000D02*
X152400000Y-124480000D01*
X152400000Y-114280000D02*
X152400000Y-115570000D01*
X153535000Y-115570000D02*
X151640000Y-115570000D01*
X153535000Y-120650000D02*
X151640000Y-120650000D01*
X153535000Y-115570000D02*
X153535000Y-120650000D01*
X157480000Y-114280000D02*
X151640000Y-114280000D01*
X151640000Y-114280000D02*
X151640000Y-124480000D01*
X151640000Y-124480000D02*
X157480000Y-124480000D01*
X155575000Y-121920000D02*
X156210000Y-122555000D01*
X156210000Y-122555000D02*
X156210000Y-123825000D01*
X156210000Y-123825000D02*
X155575000Y-124460000D01*
X155575000Y-124460000D02*
X154305000Y-124460000D01*
X154305000Y-124460000D02*
X153670000Y-123825000D01*
X153670000Y-123825000D02*
X153670000Y-122555000D01*
X153670000Y-122555000D02*
X154305000Y-121920000D01*
X155575000Y-116840000D02*
X156210000Y-117475000D01*
X156210000Y-117475000D02*
X156210000Y-118745000D01*
X156210000Y-118745000D02*
X155575000Y-119380000D01*
X155575000Y-119380000D02*
X156210000Y-120015000D01*
X156210000Y-120015000D02*
X156210000Y-121285000D01*
X156210000Y-121285000D02*
X155575000Y-121920000D01*
X154305000Y-121920000D02*
X153670000Y-121285000D01*
X153670000Y-121285000D02*
X153670000Y-120015000D01*
X153670000Y-120015000D02*
X154305000Y-119380000D01*
X154305000Y-119380000D02*
X153670000Y-118745000D01*
X153670000Y-118745000D02*
X153670000Y-117475000D01*
X153670000Y-117475000D02*
X154305000Y-116840000D01*
X155575000Y-114300000D02*
X156210000Y-114935000D01*
X156210000Y-114935000D02*
X156210000Y-116205000D01*
X156210000Y-116205000D02*
X155575000Y-116840000D01*
X154305000Y-116840000D02*
X153670000Y-116205000D01*
X153670000Y-116205000D02*
X153670000Y-114935000D01*
X153670000Y-114935000D02*
X154305000Y-114300000D01*
X154305000Y-114300000D02*
X155575000Y-114300000D01*
D15*
X91440000Y-125730000D02*
X93980000Y-125730000D01*
X88620000Y-125450000D02*
X90170000Y-125450000D01*
X91440000Y-125730000D02*
X91440000Y-128270000D01*
X90170000Y-128550000D02*
X88620000Y-128550000D01*
X88620000Y-128550000D02*
X88620000Y-125450000D01*
X91440000Y-128270000D02*
X93980000Y-128270000D01*
X93980000Y-128270000D02*
X93980000Y-125730000D01*
X93980000Y-90170000D02*
X99060000Y-90170000D01*
X99060000Y-90170000D02*
X99060000Y-87630000D01*
X99060000Y-87630000D02*
X93980000Y-87630000D01*
X91160000Y-87350000D02*
X92710000Y-87350000D01*
X93980000Y-87630000D02*
X93980000Y-90170000D01*
X92710000Y-90450000D02*
X91160000Y-90450000D01*
X91160000Y-90450000D02*
X91160000Y-87350000D01*
X116840000Y-90170000D02*
X121920000Y-90170000D01*
X121920000Y-90170000D02*
X121920000Y-87630000D01*
X121920000Y-87630000D02*
X116840000Y-87630000D01*
X114020000Y-87350000D02*
X115570000Y-87350000D01*
X116840000Y-87630000D02*
X116840000Y-90170000D01*
X115570000Y-90450000D02*
X114020000Y-90450000D01*
X114020000Y-90450000D02*
X114020000Y-87350000D01*
X140970000Y-90170000D02*
X146050000Y-90170000D01*
X146050000Y-90170000D02*
X146050000Y-87630000D01*
X146050000Y-87630000D02*
X140970000Y-87630000D01*
X138150000Y-87350000D02*
X139700000Y-87350000D01*
X140970000Y-87630000D02*
X140970000Y-90170000D01*
X139700000Y-90450000D02*
X138150000Y-90450000D01*
X138150000Y-90450000D02*
X138150000Y-87350000D01*
X139700000Y-99060000D02*
X139700000Y-104140000D01*
X139700000Y-104140000D02*
X142240000Y-104140000D01*
X142240000Y-104140000D02*
X142240000Y-99060000D01*
X142520000Y-96240000D02*
X142520000Y-97790000D01*
X142240000Y-99060000D02*
X139700000Y-99060000D01*
X139420000Y-97790000D02*
X139420000Y-96240000D01*
X139420000Y-96240000D02*
X142520000Y-96240000D01*
X139700000Y-115570000D02*
X139700000Y-120650000D01*
X139700000Y-120650000D02*
X142240000Y-120650000D01*
X142240000Y-120650000D02*
X142240000Y-115570000D01*
X142520000Y-112750000D02*
X142520000Y-114300000D01*
X142240000Y-115570000D02*
X139700000Y-115570000D01*
X139420000Y-114300000D02*
X139420000Y-112750000D01*
X139420000Y-112750000D02*
X142520000Y-112750000D01*
D16*
X61493400Y-77292200D02*
X67691000Y-77292200D01*
X61493400Y-100507800D02*
X67691000Y-100507800D01*
X59309000Y-79476600D02*
X59309000Y-98323400D01*
X60401200Y-78384400D02*
X59309000Y-79476600D01*
X60401200Y-78384400D02*
X61493400Y-77292200D01*
X60401200Y-99415600D02*
X59309000Y-98323400D01*
X60401200Y-99415600D02*
X61493400Y-100507800D01*
X66751200Y-78232000D02*
X61874400Y-78232000D01*
X60248800Y-97942400D02*
X60248800Y-79857600D01*
X66751200Y-99568000D02*
X61874400Y-99568000D01*
X61874400Y-78232000D02*
X60248800Y-79857600D01*
X61874400Y-99568000D02*
X60248800Y-97942400D01*
X67691000Y-88900000D02*
X67691000Y-100507800D01*
X67691000Y-77292200D02*
X67691000Y-88900000D01*
X66751200Y-88900000D02*
X66751200Y-99568000D01*
X66751200Y-78232000D02*
X66751200Y-88900000D01*
D15*
X81026000Y-83439000D02*
X81026000Y-86868000D01*
X71374000Y-83439000D02*
X71374000Y-86868000D01*
X81534000Y-82296000D02*
X70866000Y-82296000D01*
X77978000Y-83312000D02*
X77978000Y-82042000D01*
X74422000Y-83312000D02*
X74422000Y-82042000D01*
X70866000Y-83439000D02*
X81534000Y-83439000D01*
X81534000Y-86868000D02*
X70866000Y-86868000D01*
X70866000Y-82042000D02*
X70866000Y-86868000D01*
X81534000Y-82042000D02*
X81534000Y-86868000D01*
X81534000Y-82042000D02*
X70866000Y-82042000D01*
X103886000Y-83439000D02*
X103886000Y-86868000D01*
X94234000Y-83439000D02*
X94234000Y-86868000D01*
X104394000Y-82296000D02*
X93726000Y-82296000D01*
X100838000Y-83312000D02*
X100838000Y-82042000D01*
X97282000Y-83312000D02*
X97282000Y-82042000D01*
X93726000Y-83439000D02*
X104394000Y-83439000D01*
X104394000Y-86868000D02*
X93726000Y-86868000D01*
X93726000Y-82042000D02*
X93726000Y-86868000D01*
X104394000Y-82042000D02*
X104394000Y-86868000D01*
X104394000Y-82042000D02*
X93726000Y-82042000D01*
X126746000Y-83439000D02*
X126746000Y-86868000D01*
X117094000Y-83439000D02*
X117094000Y-86868000D01*
X127254000Y-82296000D02*
X116586000Y-82296000D01*
X123698000Y-83312000D02*
X123698000Y-82042000D01*
X120142000Y-83312000D02*
X120142000Y-82042000D01*
X116586000Y-83439000D02*
X127254000Y-83439000D01*
X127254000Y-86868000D02*
X116586000Y-86868000D01*
X116586000Y-82042000D02*
X116586000Y-86868000D01*
X127254000Y-82042000D02*
X127254000Y-86868000D01*
X127254000Y-82042000D02*
X116586000Y-82042000D01*
X150876000Y-83439000D02*
X150876000Y-86868000D01*
X141224000Y-83439000D02*
X141224000Y-86868000D01*
X151384000Y-82296000D02*
X140716000Y-82296000D01*
X147828000Y-83312000D02*
X147828000Y-82042000D01*
X144272000Y-83312000D02*
X144272000Y-82042000D01*
X140716000Y-83439000D02*
X151384000Y-83439000D01*
X151384000Y-86868000D02*
X140716000Y-86868000D01*
X140716000Y-82042000D02*
X140716000Y-86868000D01*
X151384000Y-82042000D02*
X151384000Y-86868000D01*
X151384000Y-82042000D02*
X140716000Y-82042000D01*
X147701000Y-107696000D02*
X144272000Y-107696000D01*
X147701000Y-98044000D02*
X144272000Y-98044000D01*
X148844000Y-108204000D02*
X148844000Y-97536000D01*
X147828000Y-104648000D02*
X149098000Y-104648000D01*
X147828000Y-101092000D02*
X149098000Y-101092000D01*
X147701000Y-97536000D02*
X147701000Y-108204000D01*
X144272000Y-108204000D02*
X144272000Y-97536000D01*
X149098000Y-97536000D02*
X144272000Y-97536000D01*
X149098000Y-108204000D02*
X144272000Y-108204000D01*
X149098000Y-108204000D02*
X149098000Y-97536000D01*
X147701000Y-125476000D02*
X144272000Y-125476000D01*
X147701000Y-115824000D02*
X144272000Y-115824000D01*
X148844000Y-125984000D02*
X148844000Y-115316000D01*
X147828000Y-122428000D02*
X149098000Y-122428000D01*
X147828000Y-118872000D02*
X149098000Y-118872000D01*
X147701000Y-115316000D02*
X147701000Y-125984000D01*
X144272000Y-125984000D02*
X144272000Y-115316000D01*
X149098000Y-115316000D02*
X144272000Y-115316000D01*
X149098000Y-125984000D02*
X144272000Y-125984000D01*
X149098000Y-125984000D02*
X149098000Y-115316000D01*
X78740000Y-129540000D02*
X73660000Y-129540000D01*
X73660000Y-129540000D02*
X73660000Y-127000000D01*
X73660000Y-127000000D02*
X78740000Y-127000000D01*
X78740000Y-127000000D02*
X78740000Y-129540000D01*
X78740000Y-128270000D02*
X80010000Y-128270000D01*
X73660000Y-128270000D02*
X72390000Y-128270000D01*
X80010000Y-120650000D02*
X74930000Y-120650000D01*
X74930000Y-120650000D02*
X74930000Y-118110000D01*
X74930000Y-118110000D02*
X80010000Y-118110000D01*
X80010000Y-118110000D02*
X80010000Y-120650000D01*
X80010000Y-119380000D02*
X81280000Y-119380000D01*
X74930000Y-119380000D02*
X73660000Y-119380000D01*
X83820000Y-124460000D02*
X78740000Y-124460000D01*
X78740000Y-124460000D02*
X78740000Y-121920000D01*
X78740000Y-121920000D02*
X83820000Y-121920000D01*
X83820000Y-121920000D02*
X83820000Y-124460000D01*
X83820000Y-123190000D02*
X85090000Y-123190000D01*
X78740000Y-123190000D02*
X77470000Y-123190000D01*
X85090000Y-85090000D02*
X85090000Y-90170000D01*
X85090000Y-90170000D02*
X82550000Y-90170000D01*
X82550000Y-90170000D02*
X82550000Y-85090000D01*
X82550000Y-85090000D02*
X85090000Y-85090000D01*
X83820000Y-85090000D02*
X83820000Y-83820000D01*
X83820000Y-90170000D02*
X83820000Y-91440000D01*
X88900000Y-85090000D02*
X88900000Y-90170000D01*
X88900000Y-90170000D02*
X86360000Y-90170000D01*
X86360000Y-90170000D02*
X86360000Y-85090000D01*
X86360000Y-85090000D02*
X88900000Y-85090000D01*
X87630000Y-85090000D02*
X87630000Y-83820000D01*
X87630000Y-90170000D02*
X87630000Y-91440000D01*
X107950000Y-85090000D02*
X107950000Y-90170000D01*
X107950000Y-90170000D02*
X105410000Y-90170000D01*
X105410000Y-90170000D02*
X105410000Y-85090000D01*
X105410000Y-85090000D02*
X107950000Y-85090000D01*
X106680000Y-85090000D02*
X106680000Y-83820000D01*
X106680000Y-90170000D02*
X106680000Y-91440000D01*
X111760000Y-85090000D02*
X111760000Y-90170000D01*
X111760000Y-90170000D02*
X109220000Y-90170000D01*
X109220000Y-90170000D02*
X109220000Y-85090000D01*
X109220000Y-85090000D02*
X111760000Y-85090000D01*
X110490000Y-85090000D02*
X110490000Y-83820000D01*
X110490000Y-90170000D02*
X110490000Y-91440000D01*
X130810000Y-85090000D02*
X130810000Y-90170000D01*
X130810000Y-90170000D02*
X128270000Y-90170000D01*
X128270000Y-90170000D02*
X128270000Y-85090000D01*
X128270000Y-85090000D02*
X130810000Y-85090000D01*
X129540000Y-85090000D02*
X129540000Y-83820000D01*
X129540000Y-90170000D02*
X129540000Y-91440000D01*
X134620000Y-85090000D02*
X134620000Y-90170000D01*
X134620000Y-90170000D02*
X132080000Y-90170000D01*
X132080000Y-90170000D02*
X132080000Y-85090000D01*
X132080000Y-85090000D02*
X134620000Y-85090000D01*
X133350000Y-85090000D02*
X133350000Y-83820000D01*
X133350000Y-90170000D02*
X133350000Y-91440000D01*
X154940000Y-85090000D02*
X154940000Y-90170000D01*
X154940000Y-90170000D02*
X152400000Y-90170000D01*
X152400000Y-90170000D02*
X152400000Y-85090000D01*
X152400000Y-85090000D02*
X154940000Y-85090000D01*
X153670000Y-85090000D02*
X153670000Y-83820000D01*
X153670000Y-90170000D02*
X153670000Y-91440000D01*
X158750000Y-85090000D02*
X158750000Y-90170000D01*
X158750000Y-90170000D02*
X156210000Y-90170000D01*
X156210000Y-90170000D02*
X156210000Y-85090000D01*
X156210000Y-85090000D02*
X158750000Y-85090000D01*
X157480000Y-85090000D02*
X157480000Y-83820000D01*
X157480000Y-90170000D02*
X157480000Y-91440000D01*
X139700000Y-107950000D02*
X134620000Y-107950000D01*
X134620000Y-107950000D02*
X134620000Y-105410000D01*
X134620000Y-105410000D02*
X139700000Y-105410000D01*
X139700000Y-105410000D02*
X139700000Y-107950000D01*
X139700000Y-106680000D02*
X140970000Y-106680000D01*
X134620000Y-106680000D02*
X133350000Y-106680000D01*
X139700000Y-111760000D02*
X134620000Y-111760000D01*
X134620000Y-111760000D02*
X134620000Y-109220000D01*
X134620000Y-109220000D02*
X139700000Y-109220000D01*
X139700000Y-109220000D02*
X139700000Y-111760000D01*
X139700000Y-110490000D02*
X140970000Y-110490000D01*
X134620000Y-110490000D02*
X133350000Y-110490000D01*
X139700000Y-124460000D02*
X134620000Y-124460000D01*
X134620000Y-124460000D02*
X134620000Y-121920000D01*
X134620000Y-121920000D02*
X139700000Y-121920000D01*
X139700000Y-121920000D02*
X139700000Y-124460000D01*
X139700000Y-123190000D02*
X140970000Y-123190000D01*
X134620000Y-123190000D02*
X133350000Y-123190000D01*
X139700000Y-128270000D02*
X134620000Y-128270000D01*
X134620000Y-128270000D02*
X134620000Y-125730000D01*
X134620000Y-125730000D02*
X139700000Y-125730000D01*
X139700000Y-125730000D02*
X139700000Y-128270000D01*
X139700000Y-127000000D02*
X140970000Y-127000000D01*
X134620000Y-127000000D02*
X133350000Y-127000000D01*
X97790000Y-124460000D02*
X92710000Y-124460000D01*
X92710000Y-124460000D02*
X92710000Y-121920000D01*
X92710000Y-121920000D02*
X97790000Y-121920000D01*
X97790000Y-121920000D02*
X97790000Y-124460000D01*
X97790000Y-123190000D02*
X99060000Y-123190000D01*
X92710000Y-123190000D02*
X91440000Y-123190000D01*
X96765000Y-105275000D02*
X98035000Y-105275000D01*
X96765000Y-97925000D02*
X98035000Y-97925000D01*
X119135000Y-97925000D02*
X117865000Y-97925000D01*
X119135000Y-105275000D02*
X117865000Y-105275000D01*
X96765000Y-105275000D02*
X96765000Y-97925000D01*
X119135000Y-105275000D02*
X119135000Y-97925000D01*
X98035000Y-105275000D02*
X98035000Y-106210000D01*
X60960000Y-114554000D02*
X52324000Y-114554000D01*
X69342000Y-114554000D02*
X64262000Y-114554000D01*
X60960000Y-126746000D02*
X52324000Y-126746000D01*
X69342000Y-126746000D02*
X64262000Y-126746000D01*
X52324000Y-126746000D02*
X52324000Y-114554000D01*
X69342000Y-114554000D02*
X69342000Y-126746000D01*
X115189000Y-127269240D02*
X115389660Y-127670560D01*
X115389660Y-127670560D02*
X115491260Y-128270000D01*
X115491260Y-128270000D02*
X115389660Y-128770380D01*
X115389660Y-128770380D02*
X114990880Y-129468880D01*
X114990880Y-129468880D02*
X114388900Y-129870200D01*
X114388900Y-129870200D02*
X113789460Y-130070860D01*
X113789460Y-130070860D02*
X107190540Y-130070860D01*
X107190540Y-130070860D02*
X106489500Y-129870200D01*
X106489500Y-129870200D02*
X106090720Y-129570480D01*
X106090720Y-129570480D02*
X105689400Y-129070100D01*
X105689400Y-129070100D02*
X105488740Y-128470660D01*
X105488740Y-128470660D02*
X105488740Y-127970280D01*
X105488740Y-127970280D02*
X105689400Y-127469900D01*
X105689400Y-127469900D02*
X106189780Y-126870460D01*
X106189780Y-126870460D02*
X106690160Y-126570740D01*
X106690160Y-126570740D02*
X107190540Y-126469140D01*
X107289600Y-126469140D02*
X113891060Y-126469140D01*
X113891060Y-126469140D02*
X114289840Y-126570740D01*
X114289840Y-126570740D02*
X114790220Y-126870460D01*
X114790220Y-126870460D02*
X115290600Y-127370840D01*
X107299760Y-125940820D02*
X106840020Y-125989080D01*
X106840020Y-125989080D02*
X106441240Y-126100840D01*
X106441240Y-126100840D02*
X106009440Y-126319280D01*
X106009440Y-126319280D02*
X105719880Y-126550420D01*
X105719880Y-126550420D02*
X105389680Y-126900940D01*
X105389680Y-126900940D02*
X105100120Y-127439420D01*
X105100120Y-127439420D02*
X104970580Y-128038860D01*
X104970580Y-128038860D02*
X104970580Y-128549400D01*
X104970580Y-128549400D02*
X105140760Y-129250440D01*
X105140760Y-129250440D02*
X105539540Y-129839720D01*
X105539540Y-129839720D02*
X105999280Y-130210560D01*
X105999280Y-130210560D02*
X106420920Y-130418840D01*
X106420920Y-130418840D02*
X106870500Y-130578860D01*
X106870500Y-130578860D02*
X107309920Y-130609340D01*
X114650520Y-130390900D02*
X115028980Y-130169920D01*
X115028980Y-130169920D02*
X115349020Y-129890520D01*
X115349020Y-129890520D02*
X115600480Y-129560320D01*
X115600480Y-129560320D02*
X115900200Y-129009140D01*
X115900200Y-129009140D02*
X116009420Y-128539240D01*
X116009420Y-128539240D02*
X116029740Y-128079500D01*
X116029740Y-128079500D02*
X115940840Y-127619760D01*
X115940840Y-127619760D02*
X115750340Y-127170180D01*
X115750340Y-127170180D02*
X115389660Y-126700280D01*
X115389660Y-126700280D02*
X115039140Y-126380240D01*
X115039140Y-126380240D02*
X114650520Y-126149100D01*
X114650520Y-126149100D02*
X114221260Y-126009400D01*
X114221260Y-126009400D02*
X113779300Y-125940820D01*
X107289600Y-130599180D02*
X113741200Y-130599180D01*
X113741200Y-130599180D02*
X114160300Y-130561080D01*
X114160300Y-130561080D02*
X114650520Y-130390900D01*
X107289600Y-125940820D02*
X113741200Y-125940820D01*
X85335000Y-119245000D02*
X86605000Y-119245000D01*
X85335000Y-111895000D02*
X86605000Y-111895000D01*
X122945000Y-111895000D02*
X121675000Y-111895000D01*
X122945000Y-119245000D02*
X121675000Y-119245000D01*
X85335000Y-119245000D02*
X85335000Y-111895000D01*
X122945000Y-119245000D02*
X122945000Y-111895000D01*
X86605000Y-119245000D02*
X86605000Y-120180000D01*
X72392540Y-112776520D02*
X72392540Y-114173520D01*
X72392540Y-108331520D02*
X72392540Y-106807520D01*
X73154540Y-108712520D02*
X71630540Y-108712520D01*
X73154540Y-108458520D02*
X71630540Y-108458520D01*
X72392540Y-108204520D02*
X71630540Y-108204520D01*
X71630540Y-108204520D02*
X71630540Y-112776520D01*
X71630540Y-112776520D02*
X73154540Y-112776520D01*
X73154540Y-112776520D02*
X73154540Y-108204520D01*
X73154540Y-108204520D02*
X72392540Y-108204520D01*
X76202540Y-112776520D02*
X76202540Y-114173520D01*
X76202540Y-108331520D02*
X76202540Y-106807520D01*
X76964540Y-108712520D02*
X75440540Y-108712520D01*
X76964540Y-108458520D02*
X75440540Y-108458520D01*
X76202540Y-108204520D02*
X75440540Y-108204520D01*
X75440540Y-108204520D02*
X75440540Y-112776520D01*
X75440540Y-112776520D02*
X76964540Y-112776520D01*
X76964540Y-112776520D02*
X76964540Y-108204520D01*
X76964540Y-108204520D02*
X76202540Y-108204520D01*
X60960000Y-105410000D02*
X60960000Y-110490000D01*
X60960000Y-110490000D02*
X63500000Y-110490000D01*
X63500000Y-110490000D02*
X63500000Y-105410000D01*
X63780000Y-102590000D02*
X63780000Y-104140000D01*
X63500000Y-105410000D02*
X60960000Y-105410000D01*
X60680000Y-104140000D02*
X60680000Y-102590000D01*
X60680000Y-102590000D02*
X63780000Y-102590000D01*
X80010000Y-101600000D02*
X74930000Y-101600000D01*
X74930000Y-101600000D02*
X74930000Y-99060000D01*
X74930000Y-99060000D02*
X80010000Y-99060000D01*
X80010000Y-99060000D02*
X80010000Y-101600000D01*
X80010000Y-100330000D02*
X81280000Y-100330000D01*
X74930000Y-100330000D02*
X73660000Y-100330000D01*
X69016667Y-85812381D02*
X69016667Y-86526667D01*
X68969047Y-86669524D01*
X68873809Y-86764762D01*
X68730952Y-86812381D01*
X68635714Y-86812381D01*
X69492857Y-86812381D02*
X69492857Y-85812381D01*
X69873810Y-85812381D01*
X69969048Y-85860000D01*
X70016667Y-85907619D01*
X70064286Y-86002857D01*
X70064286Y-86145714D01*
X70016667Y-86240952D01*
X69969048Y-86288571D01*
X69873810Y-86336190D01*
X69492857Y-86336190D01*
X71016667Y-86812381D02*
X70445238Y-86812381D01*
X70730952Y-86812381D02*
X70730952Y-85812381D01*
X70635714Y-85955238D01*
X70540476Y-86050476D01*
X70445238Y-86098095D01*
X103993334Y-126047143D02*
X103945715Y-126094762D01*
X103802858Y-126142381D01*
X103707620Y-126142381D01*
X103564762Y-126094762D01*
X103469524Y-125999524D01*
X103421905Y-125904286D01*
X103374286Y-125713810D01*
X103374286Y-125570952D01*
X103421905Y-125380476D01*
X103469524Y-125285238D01*
X103564762Y-125190000D01*
X103707620Y-125142381D01*
X103802858Y-125142381D01*
X103945715Y-125190000D01*
X103993334Y-125237619D01*
X104612381Y-125142381D02*
X104707620Y-125142381D01*
X104802858Y-125190000D01*
X104850477Y-125237619D01*
X104898096Y-125332857D01*
X104945715Y-125523333D01*
X104945715Y-125761429D01*
X104898096Y-125951905D01*
X104850477Y-126047143D01*
X104802858Y-126094762D01*
X104707620Y-126142381D01*
X104612381Y-126142381D01*
X104517143Y-126094762D01*
X104469524Y-126047143D01*
X104421905Y-125951905D01*
X104374286Y-125761429D01*
X104374286Y-125523333D01*
X104421905Y-125332857D01*
X104469524Y-125237619D01*
X104517143Y-125190000D01*
X104612381Y-125142381D01*
X123043334Y-100647143D02*
X122995715Y-100694762D01*
X122852858Y-100742381D01*
X122757620Y-100742381D01*
X122614762Y-100694762D01*
X122519524Y-100599524D01*
X122471905Y-100504286D01*
X122424286Y-100313810D01*
X122424286Y-100170952D01*
X122471905Y-99980476D01*
X122519524Y-99885238D01*
X122614762Y-99790000D01*
X122757620Y-99742381D01*
X122852858Y-99742381D01*
X122995715Y-99790000D01*
X123043334Y-99837619D01*
X123995715Y-100742381D02*
X123424286Y-100742381D01*
X123710000Y-100742381D02*
X123710000Y-99742381D01*
X123614762Y-99885238D01*
X123519524Y-99980476D01*
X123424286Y-100028095D01*
X78573334Y-93067143D02*
X78525715Y-93114762D01*
X78382858Y-93162381D01*
X78287620Y-93162381D01*
X78144762Y-93114762D01*
X78049524Y-93019524D01*
X78001905Y-92924286D01*
X77954286Y-92733810D01*
X77954286Y-92590952D01*
X78001905Y-92400476D01*
X78049524Y-92305238D01*
X78144762Y-92210000D01*
X78287620Y-92162381D01*
X78382858Y-92162381D01*
X78525715Y-92210000D01*
X78573334Y-92257619D01*
X78954286Y-92257619D02*
X79001905Y-92210000D01*
X79097143Y-92162381D01*
X79335239Y-92162381D01*
X79430477Y-92210000D01*
X79478096Y-92257619D01*
X79525715Y-92352857D01*
X79525715Y-92448095D01*
X79478096Y-92590952D01*
X78906667Y-93162381D01*
X79525715Y-93162381D01*
X95103334Y-95567143D02*
X95055715Y-95614762D01*
X94912858Y-95662381D01*
X94817620Y-95662381D01*
X94674762Y-95614762D01*
X94579524Y-95519524D01*
X94531905Y-95424286D01*
X94484286Y-95233810D01*
X94484286Y-95090952D01*
X94531905Y-94900476D01*
X94579524Y-94805238D01*
X94674762Y-94710000D01*
X94817620Y-94662381D01*
X94912858Y-94662381D01*
X95055715Y-94710000D01*
X95103334Y-94757619D01*
X95436667Y-94662381D02*
X96055715Y-94662381D01*
X95722381Y-95043333D01*
X95865239Y-95043333D01*
X95960477Y-95090952D01*
X96008096Y-95138571D01*
X96055715Y-95233810D01*
X96055715Y-95471905D01*
X96008096Y-95567143D01*
X95960477Y-95614762D01*
X95865239Y-95662381D01*
X95579524Y-95662381D01*
X95484286Y-95614762D01*
X95436667Y-95567143D01*
X120483334Y-95607143D02*
X120435715Y-95654762D01*
X120292858Y-95702381D01*
X120197620Y-95702381D01*
X120054762Y-95654762D01*
X119959524Y-95559524D01*
X119911905Y-95464286D01*
X119864286Y-95273810D01*
X119864286Y-95130952D01*
X119911905Y-94940476D01*
X119959524Y-94845238D01*
X120054762Y-94750000D01*
X120197620Y-94702381D01*
X120292858Y-94702381D01*
X120435715Y-94750000D01*
X120483334Y-94797619D01*
X121340477Y-95035714D02*
X121340477Y-95702381D01*
X121102381Y-94654762D02*
X120864286Y-95369048D01*
X121483334Y-95369048D01*
X148423334Y-93067143D02*
X148375715Y-93114762D01*
X148232858Y-93162381D01*
X148137620Y-93162381D01*
X147994762Y-93114762D01*
X147899524Y-93019524D01*
X147851905Y-92924286D01*
X147804286Y-92733810D01*
X147804286Y-92590952D01*
X147851905Y-92400476D01*
X147899524Y-92305238D01*
X147994762Y-92210000D01*
X148137620Y-92162381D01*
X148232858Y-92162381D01*
X148375715Y-92210000D01*
X148423334Y-92257619D01*
X149328096Y-92162381D02*
X148851905Y-92162381D01*
X148804286Y-92638571D01*
X148851905Y-92590952D01*
X148947143Y-92543333D01*
X149185239Y-92543333D01*
X149280477Y-92590952D01*
X149328096Y-92638571D01*
X149375715Y-92733810D01*
X149375715Y-92971905D01*
X149328096Y-93067143D01*
X149280477Y-93114762D01*
X149185239Y-93162381D01*
X148947143Y-93162381D01*
X148851905Y-93114762D01*
X148804286Y-93067143D01*
X134977143Y-101766666D02*
X135024762Y-101814285D01*
X135072381Y-101957142D01*
X135072381Y-102052380D01*
X135024762Y-102195238D01*
X134929524Y-102290476D01*
X134834286Y-102338095D01*
X134643810Y-102385714D01*
X134500952Y-102385714D01*
X134310476Y-102338095D01*
X134215238Y-102290476D01*
X134120000Y-102195238D01*
X134072381Y-102052380D01*
X134072381Y-101957142D01*
X134120000Y-101814285D01*
X134167619Y-101766666D01*
X134072381Y-100909523D02*
X134072381Y-101100000D01*
X134120000Y-101195238D01*
X134167619Y-101242857D01*
X134310476Y-101338095D01*
X134500952Y-101385714D01*
X134881905Y-101385714D01*
X134977143Y-101338095D01*
X135024762Y-101290476D01*
X135072381Y-101195238D01*
X135072381Y-101004761D01*
X135024762Y-100909523D01*
X134977143Y-100861904D01*
X134881905Y-100814285D01*
X134643810Y-100814285D01*
X134548571Y-100861904D01*
X134500952Y-100909523D01*
X134453333Y-101004761D01*
X134453333Y-101195238D01*
X134500952Y-101290476D01*
X134548571Y-101338095D01*
X134643810Y-101385714D01*
X133707143Y-118276666D02*
X133754762Y-118324285D01*
X133802381Y-118467142D01*
X133802381Y-118562380D01*
X133754762Y-118705238D01*
X133659524Y-118800476D01*
X133564286Y-118848095D01*
X133373810Y-118895714D01*
X133230952Y-118895714D01*
X133040476Y-118848095D01*
X132945238Y-118800476D01*
X132850000Y-118705238D01*
X132802381Y-118562380D01*
X132802381Y-118467142D01*
X132850000Y-118324285D01*
X132897619Y-118276666D01*
X132802381Y-117943333D02*
X132802381Y-117276666D01*
X133802381Y-117705238D01*
X101453334Y-131127143D02*
X101405715Y-131174762D01*
X101262858Y-131222381D01*
X101167620Y-131222381D01*
X101024762Y-131174762D01*
X100929524Y-131079524D01*
X100881905Y-130984286D01*
X100834286Y-130793810D01*
X100834286Y-130650952D01*
X100881905Y-130460476D01*
X100929524Y-130365238D01*
X101024762Y-130270000D01*
X101167620Y-130222381D01*
X101262858Y-130222381D01*
X101405715Y-130270000D01*
X101453334Y-130317619D01*
X102024762Y-130650952D02*
X101929524Y-130603333D01*
X101881905Y-130555714D01*
X101834286Y-130460476D01*
X101834286Y-130412857D01*
X101881905Y-130317619D01*
X101929524Y-130270000D01*
X102024762Y-130222381D01*
X102215239Y-130222381D01*
X102310477Y-130270000D01*
X102358096Y-130317619D01*
X102405715Y-130412857D01*
X102405715Y-130460476D01*
X102358096Y-130555714D01*
X102310477Y-130603333D01*
X102215239Y-130650952D01*
X102024762Y-130650952D01*
X101929524Y-130698571D01*
X101881905Y-130746190D01*
X101834286Y-130841429D01*
X101834286Y-131031905D01*
X101881905Y-131127143D01*
X101929524Y-131174762D01*
X102024762Y-131222381D01*
X102215239Y-131222381D01*
X102310477Y-131174762D01*
X102358096Y-131127143D01*
X102405715Y-131031905D01*
X102405715Y-130841429D01*
X102358096Y-130746190D01*
X102310477Y-130698571D01*
X102215239Y-130650952D01*
X119193334Y-126127143D02*
X119145715Y-126174762D01*
X119002858Y-126222381D01*
X118907620Y-126222381D01*
X118764762Y-126174762D01*
X118669524Y-126079524D01*
X118621905Y-125984286D01*
X118574286Y-125793810D01*
X118574286Y-125650952D01*
X118621905Y-125460476D01*
X118669524Y-125365238D01*
X118764762Y-125270000D01*
X118907620Y-125222381D01*
X119002858Y-125222381D01*
X119145715Y-125270000D01*
X119193334Y-125317619D01*
X119669524Y-126222381D02*
X119860000Y-126222381D01*
X119955239Y-126174762D01*
X120002858Y-126127143D01*
X120098096Y-125984286D01*
X120145715Y-125793810D01*
X120145715Y-125412857D01*
X120098096Y-125317619D01*
X120050477Y-125270000D01*
X119955239Y-125222381D01*
X119764762Y-125222381D01*
X119669524Y-125270000D01*
X119621905Y-125317619D01*
X119574286Y-125412857D01*
X119574286Y-125650952D01*
X119621905Y-125746190D01*
X119669524Y-125793810D01*
X119764762Y-125841429D01*
X119955239Y-125841429D01*
X120050477Y-125793810D01*
X120098096Y-125746190D01*
X120145715Y-125650952D01*
D17*
X69791943Y-78515029D02*
X69791943Y-78785962D01*
X70217695Y-78785962D02*
X69404895Y-78785962D01*
X69404895Y-78398915D01*
X69985467Y-78127981D02*
X69985467Y-77740933D01*
X70217695Y-78205390D02*
X69404895Y-77934457D01*
X70217695Y-77663524D01*
X70217695Y-77392590D02*
X69404895Y-77392590D01*
X70217695Y-76928133D01*
X69404895Y-76928133D01*
X69404895Y-76386266D02*
X69404895Y-76308857D01*
X69443600Y-76231447D01*
X69482305Y-76192742D01*
X69559714Y-76154038D01*
X69714533Y-76115333D01*
X69908057Y-76115333D01*
X70062876Y-76154038D01*
X70140286Y-76192742D01*
X70178990Y-76231447D01*
X70217695Y-76308857D01*
X70217695Y-76386266D01*
X70178990Y-76463676D01*
X70140286Y-76502380D01*
X70062876Y-76541085D01*
X69908057Y-76579790D01*
X69714533Y-76579790D01*
X69559714Y-76541085D01*
X69482305Y-76502380D01*
X69443600Y-76463676D01*
X69404895Y-76386266D01*
X92651943Y-78515029D02*
X92651943Y-78785962D01*
X93077695Y-78785962D02*
X92264895Y-78785962D01*
X92264895Y-78398915D01*
X92845467Y-78127981D02*
X92845467Y-77740933D01*
X93077695Y-78205390D02*
X92264895Y-77934457D01*
X93077695Y-77663524D01*
X93077695Y-77392590D02*
X92264895Y-77392590D01*
X93077695Y-76928133D01*
X92264895Y-76928133D01*
X93077695Y-76115333D02*
X93077695Y-76579790D01*
X93077695Y-76347561D02*
X92264895Y-76347561D01*
X92381010Y-76424971D01*
X92458419Y-76502380D01*
X92497124Y-76579790D01*
X115511943Y-78515029D02*
X115511943Y-78785962D01*
X115937695Y-78785962D02*
X115124895Y-78785962D01*
X115124895Y-78398915D01*
X115705467Y-78127981D02*
X115705467Y-77740933D01*
X115937695Y-78205390D02*
X115124895Y-77934457D01*
X115937695Y-77663524D01*
X115937695Y-77392590D02*
X115124895Y-77392590D01*
X115937695Y-76928133D01*
X115124895Y-76928133D01*
X115202305Y-76579790D02*
X115163600Y-76541085D01*
X115124895Y-76463676D01*
X115124895Y-76270152D01*
X115163600Y-76192742D01*
X115202305Y-76154038D01*
X115279714Y-76115333D01*
X115357124Y-76115333D01*
X115473238Y-76154038D01*
X115937695Y-76618495D01*
X115937695Y-76115333D01*
X139641943Y-78515029D02*
X139641943Y-78785962D01*
X140067695Y-78785962D02*
X139254895Y-78785962D01*
X139254895Y-78398915D01*
X139835467Y-78127981D02*
X139835467Y-77740933D01*
X140067695Y-78205390D02*
X139254895Y-77934457D01*
X140067695Y-77663524D01*
X140067695Y-77392590D02*
X139254895Y-77392590D01*
X140067695Y-76928133D01*
X139254895Y-76928133D01*
X139254895Y-76618495D02*
X139254895Y-76115333D01*
X139564533Y-76386266D01*
X139564533Y-76270152D01*
X139603238Y-76192742D01*
X139641943Y-76154038D01*
X139719352Y-76115333D01*
X139912876Y-76115333D01*
X139990286Y-76154038D01*
X140028990Y-76192742D01*
X140067695Y-76270152D01*
X140067695Y-76502380D01*
X140028990Y-76579790D01*
X139990286Y-76618495D01*
X153894971Y-96461943D02*
X153624038Y-96461943D01*
X153624038Y-96887695D02*
X153624038Y-96074895D01*
X154011085Y-96074895D01*
X154282019Y-96655467D02*
X154669067Y-96655467D01*
X154204610Y-96887695D02*
X154475543Y-96074895D01*
X154746476Y-96887695D01*
X155017410Y-96887695D02*
X155017410Y-96074895D01*
X155481867Y-96887695D01*
X155481867Y-96074895D01*
X156217258Y-96345829D02*
X156217258Y-96887695D01*
X156023734Y-96036190D02*
X155830210Y-96616762D01*
X156333372Y-96616762D01*
X153894971Y-112971943D02*
X153624038Y-112971943D01*
X153624038Y-113397695D02*
X153624038Y-112584895D01*
X154011085Y-112584895D01*
X154282019Y-113165467D02*
X154669067Y-113165467D01*
X154204610Y-113397695D02*
X154475543Y-112584895D01*
X154746476Y-113397695D01*
X155017410Y-113397695D02*
X155017410Y-112584895D01*
X155481867Y-113397695D01*
X155481867Y-112584895D01*
X156255962Y-112584895D02*
X155868915Y-112584895D01*
X155830210Y-112971943D01*
X155868915Y-112933238D01*
X155946324Y-112894533D01*
X156139848Y-112894533D01*
X156217258Y-112933238D01*
X156255962Y-112971943D01*
X156294667Y-113049352D01*
X156294667Y-113242876D01*
X156255962Y-113320286D01*
X156217258Y-113358990D01*
X156139848Y-113397695D01*
X155946324Y-113397695D01*
X155868915Y-113358990D01*
X155830210Y-113320286D01*
D15*
X87082381Y-127833333D02*
X87796667Y-127833333D01*
X87939524Y-127880953D01*
X88034762Y-127976191D01*
X88082381Y-128119048D01*
X88082381Y-128214286D01*
X88082381Y-127357143D02*
X87082381Y-127357143D01*
X87082381Y-126976190D01*
X87130000Y-126880952D01*
X87177619Y-126833333D01*
X87272857Y-126785714D01*
X87415714Y-126785714D01*
X87510952Y-126833333D01*
X87558571Y-126880952D01*
X87606190Y-126976190D01*
X87606190Y-127357143D01*
X87082381Y-126166667D02*
X87082381Y-126071428D01*
X87130000Y-125976190D01*
X87177619Y-125928571D01*
X87272857Y-125880952D01*
X87463333Y-125833333D01*
X87701429Y-125833333D01*
X87891905Y-125880952D01*
X87987143Y-125928571D01*
X88034762Y-125976190D01*
X88082381Y-126071428D01*
X88082381Y-126166667D01*
X88034762Y-126261905D01*
X87987143Y-126309524D01*
X87891905Y-126357143D01*
X87701429Y-126404762D01*
X87463333Y-126404762D01*
X87272857Y-126357143D01*
X87177619Y-126309524D01*
X87130000Y-126261905D01*
X87082381Y-126166667D01*
X90606667Y-85812381D02*
X90606667Y-86526667D01*
X90559047Y-86669524D01*
X90463809Y-86764762D01*
X90320952Y-86812381D01*
X90225714Y-86812381D01*
X91082857Y-86812381D02*
X91082857Y-85812381D01*
X91463810Y-85812381D01*
X91559048Y-85860000D01*
X91606667Y-85907619D01*
X91654286Y-86002857D01*
X91654286Y-86145714D01*
X91606667Y-86240952D01*
X91559048Y-86288571D01*
X91463810Y-86336190D01*
X91082857Y-86336190D01*
X92035238Y-85907619D02*
X92082857Y-85860000D01*
X92178095Y-85812381D01*
X92416191Y-85812381D01*
X92511429Y-85860000D01*
X92559048Y-85907619D01*
X92606667Y-86002857D01*
X92606667Y-86098095D01*
X92559048Y-86240952D01*
X91987619Y-86812381D01*
X92606667Y-86812381D01*
X113466667Y-85812381D02*
X113466667Y-86526667D01*
X113419047Y-86669524D01*
X113323809Y-86764762D01*
X113180952Y-86812381D01*
X113085714Y-86812381D01*
X113942857Y-86812381D02*
X113942857Y-85812381D01*
X114323810Y-85812381D01*
X114419048Y-85860000D01*
X114466667Y-85907619D01*
X114514286Y-86002857D01*
X114514286Y-86145714D01*
X114466667Y-86240952D01*
X114419048Y-86288571D01*
X114323810Y-86336190D01*
X113942857Y-86336190D01*
X114847619Y-85812381D02*
X115466667Y-85812381D01*
X115133333Y-86193333D01*
X115276191Y-86193333D01*
X115371429Y-86240952D01*
X115419048Y-86288571D01*
X115466667Y-86383810D01*
X115466667Y-86621905D01*
X115419048Y-86717143D01*
X115371429Y-86764762D01*
X115276191Y-86812381D01*
X114990476Y-86812381D01*
X114895238Y-86764762D01*
X114847619Y-86717143D01*
X137596667Y-85812381D02*
X137596667Y-86526667D01*
X137549047Y-86669524D01*
X137453809Y-86764762D01*
X137310952Y-86812381D01*
X137215714Y-86812381D01*
X138072857Y-86812381D02*
X138072857Y-85812381D01*
X138453810Y-85812381D01*
X138549048Y-85860000D01*
X138596667Y-85907619D01*
X138644286Y-86002857D01*
X138644286Y-86145714D01*
X138596667Y-86240952D01*
X138549048Y-86288571D01*
X138453810Y-86336190D01*
X138072857Y-86336190D01*
X139501429Y-86145714D02*
X139501429Y-86812381D01*
X139263333Y-85764762D02*
X139025238Y-86479048D01*
X139644286Y-86479048D01*
X137882381Y-98623333D02*
X138596667Y-98623333D01*
X138739524Y-98670953D01*
X138834762Y-98766191D01*
X138882381Y-98909048D01*
X138882381Y-99004286D01*
X138882381Y-98147143D02*
X137882381Y-98147143D01*
X137882381Y-97766190D01*
X137930000Y-97670952D01*
X137977619Y-97623333D01*
X138072857Y-97575714D01*
X138215714Y-97575714D01*
X138310952Y-97623333D01*
X138358571Y-97670952D01*
X138406190Y-97766190D01*
X138406190Y-98147143D01*
X137882381Y-96670952D02*
X137882381Y-97147143D01*
X138358571Y-97194762D01*
X138310952Y-97147143D01*
X138263333Y-97051905D01*
X138263333Y-96813809D01*
X138310952Y-96718571D01*
X138358571Y-96670952D01*
X138453810Y-96623333D01*
X138691905Y-96623333D01*
X138787143Y-96670952D01*
X138834762Y-96718571D01*
X138882381Y-96813809D01*
X138882381Y-97051905D01*
X138834762Y-97147143D01*
X138787143Y-97194762D01*
X142962381Y-115133333D02*
X143676667Y-115133333D01*
X143819524Y-115180953D01*
X143914762Y-115276191D01*
X143962381Y-115419048D01*
X143962381Y-115514286D01*
X143962381Y-114657143D02*
X142962381Y-114657143D01*
X142962381Y-114276190D01*
X143010000Y-114180952D01*
X143057619Y-114133333D01*
X143152857Y-114085714D01*
X143295714Y-114085714D01*
X143390952Y-114133333D01*
X143438571Y-114180952D01*
X143486190Y-114276190D01*
X143486190Y-114657143D01*
X142962381Y-113228571D02*
X142962381Y-113419048D01*
X143010000Y-113514286D01*
X143057619Y-113561905D01*
X143200476Y-113657143D01*
X143390952Y-113704762D01*
X143771905Y-113704762D01*
X143867143Y-113657143D01*
X143914762Y-113609524D01*
X143962381Y-113514286D01*
X143962381Y-113323809D01*
X143914762Y-113228571D01*
X143867143Y-113180952D01*
X143771905Y-113133333D01*
X143533810Y-113133333D01*
X143438571Y-113180952D01*
X143390952Y-113228571D01*
X143343333Y-113323809D01*
X143343333Y-113514286D01*
X143390952Y-113609524D01*
X143438571Y-113657143D01*
X143533810Y-113704762D01*
D17*
X62029220Y-76567695D02*
X62029220Y-75754895D01*
X62338858Y-75754895D01*
X62416267Y-75793600D01*
X62454972Y-75832305D01*
X62493677Y-75909714D01*
X62493677Y-76025829D01*
X62454972Y-76103238D01*
X62416267Y-76141943D01*
X62338858Y-76180648D01*
X62029220Y-76180648D01*
X62764610Y-75754895D02*
X62958134Y-76567695D01*
X63112953Y-75987124D01*
X63267772Y-76567695D01*
X63461296Y-75754895D01*
X64235391Y-76567695D02*
X63964458Y-76180648D01*
X63770934Y-76567695D02*
X63770934Y-75754895D01*
X64080572Y-75754895D01*
X64157981Y-75793600D01*
X64196686Y-75832305D01*
X64235391Y-75909714D01*
X64235391Y-76025829D01*
X64196686Y-76103238D01*
X64157981Y-76141943D01*
X64080572Y-76180648D01*
X63770934Y-76180648D01*
X64738553Y-75754895D02*
X64815962Y-75754895D01*
X64893372Y-75793600D01*
X64932077Y-75832305D01*
X64970781Y-75909714D01*
X65009486Y-76064533D01*
X65009486Y-76258057D01*
X64970781Y-76412876D01*
X64932077Y-76490286D01*
X64893372Y-76528990D01*
X64815962Y-76567695D01*
X64738553Y-76567695D01*
X64661143Y-76528990D01*
X64622439Y-76490286D01*
X64583734Y-76412876D01*
X64545029Y-76258057D01*
X64545029Y-76064533D01*
X64583734Y-75909714D01*
X64622439Y-75832305D01*
X64661143Y-75793600D01*
X64738553Y-75754895D01*
X65633600Y-92059276D02*
X65594895Y-92136685D01*
X65594895Y-92252800D01*
X65633600Y-92368914D01*
X65711010Y-92446323D01*
X65788419Y-92485028D01*
X65943238Y-92523733D01*
X66059352Y-92523733D01*
X66214171Y-92485028D01*
X66291581Y-92446323D01*
X66368990Y-92368914D01*
X66407695Y-92252800D01*
X66407695Y-92175390D01*
X66368990Y-92059276D01*
X66330286Y-92020571D01*
X66059352Y-92020571D01*
X66059352Y-92175390D01*
X66407695Y-91672228D02*
X65594895Y-91672228D01*
X66407695Y-91207771D01*
X65594895Y-91207771D01*
X66407695Y-90820723D02*
X65594895Y-90820723D01*
X65594895Y-90627199D01*
X65633600Y-90511085D01*
X65711010Y-90433676D01*
X65788419Y-90394971D01*
X65943238Y-90356266D01*
X66059352Y-90356266D01*
X66214171Y-90394971D01*
X66291581Y-90433676D01*
X66368990Y-90511085D01*
X66407695Y-90627199D01*
X66407695Y-90820723D01*
X66098057Y-97952076D02*
X66098057Y-97332800D01*
X66407695Y-97642438D02*
X65788419Y-97642438D01*
X66407695Y-96520000D02*
X66407695Y-96984457D01*
X66407695Y-96752228D02*
X65594895Y-96752228D01*
X65711010Y-96829638D01*
X65788419Y-96907047D01*
X65827124Y-96984457D01*
X65672305Y-96210362D02*
X65633600Y-96171657D01*
X65594895Y-96094248D01*
X65594895Y-95900724D01*
X65633600Y-95823314D01*
X65672305Y-95784610D01*
X65749714Y-95745905D01*
X65827124Y-95745905D01*
X65943238Y-95784610D01*
X66407695Y-96249067D01*
X66407695Y-95745905D01*
X65594895Y-95513676D02*
X66407695Y-95242743D01*
X65594895Y-94971810D01*
X65633600Y-86979276D02*
X65594895Y-87056685D01*
X65594895Y-87172800D01*
X65633600Y-87288914D01*
X65711010Y-87366323D01*
X65788419Y-87405028D01*
X65943238Y-87443733D01*
X66059352Y-87443733D01*
X66214171Y-87405028D01*
X66291581Y-87366323D01*
X66368990Y-87288914D01*
X66407695Y-87172800D01*
X66407695Y-87095390D01*
X66368990Y-86979276D01*
X66330286Y-86940571D01*
X66059352Y-86940571D01*
X66059352Y-87095390D01*
X66407695Y-86592228D02*
X65594895Y-86592228D01*
X66407695Y-86127771D01*
X65594895Y-86127771D01*
X66407695Y-85740723D02*
X65594895Y-85740723D01*
X65594895Y-85547199D01*
X65633600Y-85431085D01*
X65711010Y-85353676D01*
X65788419Y-85314971D01*
X65943238Y-85276266D01*
X66059352Y-85276266D01*
X66214171Y-85314971D01*
X66291581Y-85353676D01*
X66368990Y-85431085D01*
X66407695Y-85547199D01*
X66407695Y-85740723D01*
X66098057Y-82325028D02*
X66098057Y-81705752D01*
X66407695Y-82015390D02*
X65788419Y-82015390D01*
X65594895Y-80931657D02*
X65594895Y-81318704D01*
X65981943Y-81357409D01*
X65943238Y-81318704D01*
X65904533Y-81241295D01*
X65904533Y-81047771D01*
X65943238Y-80970361D01*
X65981943Y-80931657D01*
X66059352Y-80892952D01*
X66252876Y-80892952D01*
X66330286Y-80931657D01*
X66368990Y-80970361D01*
X66407695Y-81047771D01*
X66407695Y-81241295D01*
X66368990Y-81318704D01*
X66330286Y-81357409D01*
X65594895Y-80660723D02*
X66407695Y-80389790D01*
X65594895Y-80118857D01*
X61018057Y-97952076D02*
X61018057Y-97332800D01*
X61327695Y-97642438D02*
X60708419Y-97642438D01*
X61327695Y-96520000D02*
X61327695Y-96984457D01*
X61327695Y-96752228D02*
X60514895Y-96752228D01*
X60631010Y-96829638D01*
X60708419Y-96907047D01*
X60747124Y-96984457D01*
X60592305Y-96210362D02*
X60553600Y-96171657D01*
X60514895Y-96094248D01*
X60514895Y-95900724D01*
X60553600Y-95823314D01*
X60592305Y-95784610D01*
X60669714Y-95745905D01*
X60747124Y-95745905D01*
X60863238Y-95784610D01*
X61327695Y-96249067D01*
X61327695Y-95745905D01*
X60514895Y-95513676D02*
X61327695Y-95242743D01*
X60514895Y-94971810D01*
X60553600Y-92059276D02*
X60514895Y-92136685D01*
X60514895Y-92252800D01*
X60553600Y-92368914D01*
X60631010Y-92446323D01*
X60708419Y-92485028D01*
X60863238Y-92523733D01*
X60979352Y-92523733D01*
X61134171Y-92485028D01*
X61211581Y-92446323D01*
X61288990Y-92368914D01*
X61327695Y-92252800D01*
X61327695Y-92175390D01*
X61288990Y-92059276D01*
X61250286Y-92020571D01*
X60979352Y-92020571D01*
X60979352Y-92175390D01*
X61327695Y-91672228D02*
X60514895Y-91672228D01*
X61327695Y-91207771D01*
X60514895Y-91207771D01*
X61327695Y-90820723D02*
X60514895Y-90820723D01*
X60514895Y-90627199D01*
X60553600Y-90511085D01*
X60631010Y-90433676D01*
X60708419Y-90394971D01*
X60863238Y-90356266D01*
X60979352Y-90356266D01*
X61134171Y-90394971D01*
X61211581Y-90433676D01*
X61288990Y-90511085D01*
X61327695Y-90627199D01*
X61327695Y-90820723D01*
X60553600Y-86979276D02*
X60514895Y-87056685D01*
X60514895Y-87172800D01*
X60553600Y-87288914D01*
X60631010Y-87366323D01*
X60708419Y-87405028D01*
X60863238Y-87443733D01*
X60979352Y-87443733D01*
X61134171Y-87405028D01*
X61211581Y-87366323D01*
X61288990Y-87288914D01*
X61327695Y-87172800D01*
X61327695Y-87095390D01*
X61288990Y-86979276D01*
X61250286Y-86940571D01*
X60979352Y-86940571D01*
X60979352Y-87095390D01*
X61327695Y-86592228D02*
X60514895Y-86592228D01*
X61327695Y-86127771D01*
X60514895Y-86127771D01*
X61327695Y-85740723D02*
X60514895Y-85740723D01*
X60514895Y-85547199D01*
X60553600Y-85431085D01*
X60631010Y-85353676D01*
X60708419Y-85314971D01*
X60863238Y-85276266D01*
X60979352Y-85276266D01*
X61134171Y-85314971D01*
X61211581Y-85353676D01*
X61288990Y-85431085D01*
X61327695Y-85547199D01*
X61327695Y-85740723D01*
X61018057Y-82325028D02*
X61018057Y-81705752D01*
X61327695Y-82015390D02*
X60708419Y-82015390D01*
X60514895Y-80931657D02*
X60514895Y-81318704D01*
X60901943Y-81357409D01*
X60863238Y-81318704D01*
X60824533Y-81241295D01*
X60824533Y-81047771D01*
X60863238Y-80970361D01*
X60901943Y-80931657D01*
X60979352Y-80892952D01*
X61172876Y-80892952D01*
X61250286Y-80931657D01*
X61288990Y-80970361D01*
X61327695Y-81047771D01*
X61327695Y-81241295D01*
X61288990Y-81318704D01*
X61250286Y-81357409D01*
X60514895Y-80660723D02*
X61327695Y-80389790D01*
X60514895Y-80118857D01*
D15*
X76104762Y-81827619D02*
X76009524Y-81780000D01*
X75914286Y-81684762D01*
X75771429Y-81541905D01*
X75676190Y-81494286D01*
X75580952Y-81494286D01*
X75628571Y-81732381D02*
X75533333Y-81684762D01*
X75438095Y-81589524D01*
X75390476Y-81399048D01*
X75390476Y-81065714D01*
X75438095Y-80875238D01*
X75533333Y-80780000D01*
X75628571Y-80732381D01*
X75819048Y-80732381D01*
X75914286Y-80780000D01*
X76009524Y-80875238D01*
X76057143Y-81065714D01*
X76057143Y-81399048D01*
X76009524Y-81589524D01*
X75914286Y-81684762D01*
X75819048Y-81732381D01*
X75628571Y-81732381D01*
X76676190Y-80732381D02*
X76771429Y-80732381D01*
X76866667Y-80780000D01*
X76914286Y-80827619D01*
X76961905Y-80922857D01*
X77009524Y-81113333D01*
X77009524Y-81351429D01*
X76961905Y-81541905D01*
X76914286Y-81637143D01*
X76866667Y-81684762D01*
X76771429Y-81732381D01*
X76676190Y-81732381D01*
X76580952Y-81684762D01*
X76533333Y-81637143D01*
X76485714Y-81541905D01*
X76438095Y-81351429D01*
X76438095Y-81113333D01*
X76485714Y-80922857D01*
X76533333Y-80827619D01*
X76580952Y-80780000D01*
X76676190Y-80732381D01*
X98964762Y-81319619D02*
X98869524Y-81272000D01*
X98774286Y-81176762D01*
X98631429Y-81033905D01*
X98536190Y-80986286D01*
X98440952Y-80986286D01*
X98488571Y-81224381D02*
X98393333Y-81176762D01*
X98298095Y-81081524D01*
X98250476Y-80891048D01*
X98250476Y-80557714D01*
X98298095Y-80367238D01*
X98393333Y-80272000D01*
X98488571Y-80224381D01*
X98679048Y-80224381D01*
X98774286Y-80272000D01*
X98869524Y-80367238D01*
X98917143Y-80557714D01*
X98917143Y-80891048D01*
X98869524Y-81081524D01*
X98774286Y-81176762D01*
X98679048Y-81224381D01*
X98488571Y-81224381D01*
X99869524Y-81224381D02*
X99298095Y-81224381D01*
X99583809Y-81224381D02*
X99583809Y-80224381D01*
X99488571Y-80367238D01*
X99393333Y-80462476D01*
X99298095Y-80510095D01*
X121824762Y-81319619D02*
X121729524Y-81272000D01*
X121634286Y-81176762D01*
X121491429Y-81033905D01*
X121396190Y-80986286D01*
X121300952Y-80986286D01*
X121348571Y-81224381D02*
X121253333Y-81176762D01*
X121158095Y-81081524D01*
X121110476Y-80891048D01*
X121110476Y-80557714D01*
X121158095Y-80367238D01*
X121253333Y-80272000D01*
X121348571Y-80224381D01*
X121539048Y-80224381D01*
X121634286Y-80272000D01*
X121729524Y-80367238D01*
X121777143Y-80557714D01*
X121777143Y-80891048D01*
X121729524Y-81081524D01*
X121634286Y-81176762D01*
X121539048Y-81224381D01*
X121348571Y-81224381D01*
X122158095Y-80319619D02*
X122205714Y-80272000D01*
X122300952Y-80224381D01*
X122539048Y-80224381D01*
X122634286Y-80272000D01*
X122681905Y-80319619D01*
X122729524Y-80414857D01*
X122729524Y-80510095D01*
X122681905Y-80652952D01*
X122110476Y-81224381D01*
X122729524Y-81224381D01*
X145954762Y-81827619D02*
X145859524Y-81780000D01*
X145764286Y-81684762D01*
X145621429Y-81541905D01*
X145526190Y-81494286D01*
X145430952Y-81494286D01*
X145478571Y-81732381D02*
X145383333Y-81684762D01*
X145288095Y-81589524D01*
X145240476Y-81399048D01*
X145240476Y-81065714D01*
X145288095Y-80875238D01*
X145383333Y-80780000D01*
X145478571Y-80732381D01*
X145669048Y-80732381D01*
X145764286Y-80780000D01*
X145859524Y-80875238D01*
X145907143Y-81065714D01*
X145907143Y-81399048D01*
X145859524Y-81589524D01*
X145764286Y-81684762D01*
X145669048Y-81732381D01*
X145478571Y-81732381D01*
X146240476Y-80732381D02*
X146859524Y-80732381D01*
X146526190Y-81113333D01*
X146669048Y-81113333D01*
X146764286Y-81160952D01*
X146811905Y-81208571D01*
X146859524Y-81303810D01*
X146859524Y-81541905D01*
X146811905Y-81637143D01*
X146764286Y-81684762D01*
X146669048Y-81732381D01*
X146383333Y-81732381D01*
X146288095Y-81684762D01*
X146240476Y-81637143D01*
X150915619Y-102965238D02*
X150868000Y-103060476D01*
X150772762Y-103155714D01*
X150629905Y-103298571D01*
X150582286Y-103393810D01*
X150582286Y-103489048D01*
X150820381Y-103441429D02*
X150772762Y-103536667D01*
X150677524Y-103631905D01*
X150487048Y-103679524D01*
X150153714Y-103679524D01*
X149963238Y-103631905D01*
X149868000Y-103536667D01*
X149820381Y-103441429D01*
X149820381Y-103250952D01*
X149868000Y-103155714D01*
X149963238Y-103060476D01*
X150153714Y-103012857D01*
X150487048Y-103012857D01*
X150677524Y-103060476D01*
X150772762Y-103155714D01*
X150820381Y-103250952D01*
X150820381Y-103441429D01*
X150153714Y-102155714D02*
X150820381Y-102155714D01*
X149772762Y-102393810D02*
X150487048Y-102631905D01*
X150487048Y-102012857D01*
X150915619Y-120745238D02*
X150868000Y-120840476D01*
X150772762Y-120935714D01*
X150629905Y-121078571D01*
X150582286Y-121173810D01*
X150582286Y-121269048D01*
X150820381Y-121221429D02*
X150772762Y-121316667D01*
X150677524Y-121411905D01*
X150487048Y-121459524D01*
X150153714Y-121459524D01*
X149963238Y-121411905D01*
X149868000Y-121316667D01*
X149820381Y-121221429D01*
X149820381Y-121030952D01*
X149868000Y-120935714D01*
X149963238Y-120840476D01*
X150153714Y-120792857D01*
X150487048Y-120792857D01*
X150677524Y-120840476D01*
X150772762Y-120935714D01*
X150820381Y-121030952D01*
X150820381Y-121221429D01*
X149820381Y-119888095D02*
X149820381Y-120364286D01*
X150296571Y-120411905D01*
X150248952Y-120364286D01*
X150201333Y-120269048D01*
X150201333Y-120030952D01*
X150248952Y-119935714D01*
X150296571Y-119888095D01*
X150391810Y-119840476D01*
X150629905Y-119840476D01*
X150725143Y-119888095D01*
X150772762Y-119935714D01*
X150820381Y-120030952D01*
X150820381Y-120269048D01*
X150772762Y-120364286D01*
X150725143Y-120411905D01*
X76033334Y-131262381D02*
X75700000Y-130786190D01*
X75461905Y-131262381D02*
X75461905Y-130262381D01*
X75842858Y-130262381D01*
X75938096Y-130310000D01*
X75985715Y-130357619D01*
X76033334Y-130452857D01*
X76033334Y-130595714D01*
X75985715Y-130690952D01*
X75938096Y-130738571D01*
X75842858Y-130786190D01*
X75461905Y-130786190D01*
X76652381Y-130262381D02*
X76747620Y-130262381D01*
X76842858Y-130310000D01*
X76890477Y-130357619D01*
X76938096Y-130452857D01*
X76985715Y-130643333D01*
X76985715Y-130881429D01*
X76938096Y-131071905D01*
X76890477Y-131167143D01*
X76842858Y-131214762D01*
X76747620Y-131262381D01*
X76652381Y-131262381D01*
X76557143Y-131214762D01*
X76509524Y-131167143D01*
X76461905Y-131071905D01*
X76414286Y-130881429D01*
X76414286Y-130643333D01*
X76461905Y-130452857D01*
X76509524Y-130357619D01*
X76557143Y-130310000D01*
X76652381Y-130262381D01*
X78573334Y-117292381D02*
X78240000Y-116816190D01*
X78001905Y-117292381D02*
X78001905Y-116292381D01*
X78382858Y-116292381D01*
X78478096Y-116340000D01*
X78525715Y-116387619D01*
X78573334Y-116482857D01*
X78573334Y-116625714D01*
X78525715Y-116720952D01*
X78478096Y-116768571D01*
X78382858Y-116816190D01*
X78001905Y-116816190D01*
X79525715Y-117292381D02*
X78954286Y-117292381D01*
X79240000Y-117292381D02*
X79240000Y-116292381D01*
X79144762Y-116435238D01*
X79049524Y-116530476D01*
X78954286Y-116578095D01*
X81113334Y-126182381D02*
X80780000Y-125706190D01*
X80541905Y-126182381D02*
X80541905Y-125182381D01*
X80922858Y-125182381D01*
X81018096Y-125230000D01*
X81065715Y-125277619D01*
X81113334Y-125372857D01*
X81113334Y-125515714D01*
X81065715Y-125610952D01*
X81018096Y-125658571D01*
X80922858Y-125706190D01*
X80541905Y-125706190D01*
X81494286Y-125277619D02*
X81541905Y-125230000D01*
X81637143Y-125182381D01*
X81875239Y-125182381D01*
X81970477Y-125230000D01*
X82018096Y-125277619D01*
X82065715Y-125372857D01*
X82065715Y-125468095D01*
X82018096Y-125610952D01*
X81446667Y-126182381D01*
X82065715Y-126182381D01*
X83653334Y-80462381D02*
X83320000Y-79986190D01*
X83081905Y-80462381D02*
X83081905Y-79462381D01*
X83462858Y-79462381D01*
X83558096Y-79510000D01*
X83605715Y-79557619D01*
X83653334Y-79652857D01*
X83653334Y-79795714D01*
X83605715Y-79890952D01*
X83558096Y-79938571D01*
X83462858Y-79986190D01*
X83081905Y-79986190D01*
X83986667Y-79462381D02*
X84605715Y-79462381D01*
X84272381Y-79843333D01*
X84415239Y-79843333D01*
X84510477Y-79890952D01*
X84558096Y-79938571D01*
X84605715Y-80033810D01*
X84605715Y-80271905D01*
X84558096Y-80367143D01*
X84510477Y-80414762D01*
X84415239Y-80462381D01*
X84129524Y-80462381D01*
X84034286Y-80414762D01*
X83986667Y-80367143D01*
X87463334Y-80462381D02*
X87130000Y-79986190D01*
X86891905Y-80462381D02*
X86891905Y-79462381D01*
X87272858Y-79462381D01*
X87368096Y-79510000D01*
X87415715Y-79557619D01*
X87463334Y-79652857D01*
X87463334Y-79795714D01*
X87415715Y-79890952D01*
X87368096Y-79938571D01*
X87272858Y-79986190D01*
X86891905Y-79986190D01*
X88320477Y-79795714D02*
X88320477Y-80462381D01*
X88082381Y-79414762D02*
X87844286Y-80129048D01*
X88463334Y-80129048D01*
X106513334Y-80462381D02*
X106180000Y-79986190D01*
X105941905Y-80462381D02*
X105941905Y-79462381D01*
X106322858Y-79462381D01*
X106418096Y-79510000D01*
X106465715Y-79557619D01*
X106513334Y-79652857D01*
X106513334Y-79795714D01*
X106465715Y-79890952D01*
X106418096Y-79938571D01*
X106322858Y-79986190D01*
X105941905Y-79986190D01*
X107418096Y-79462381D02*
X106941905Y-79462381D01*
X106894286Y-79938571D01*
X106941905Y-79890952D01*
X107037143Y-79843333D01*
X107275239Y-79843333D01*
X107370477Y-79890952D01*
X107418096Y-79938571D01*
X107465715Y-80033810D01*
X107465715Y-80271905D01*
X107418096Y-80367143D01*
X107370477Y-80414762D01*
X107275239Y-80462381D01*
X107037143Y-80462381D01*
X106941905Y-80414762D01*
X106894286Y-80367143D01*
X110323334Y-80462381D02*
X109990000Y-79986190D01*
X109751905Y-80462381D02*
X109751905Y-79462381D01*
X110132858Y-79462381D01*
X110228096Y-79510000D01*
X110275715Y-79557619D01*
X110323334Y-79652857D01*
X110323334Y-79795714D01*
X110275715Y-79890952D01*
X110228096Y-79938571D01*
X110132858Y-79986190D01*
X109751905Y-79986190D01*
X111180477Y-79462381D02*
X110990000Y-79462381D01*
X110894762Y-79510000D01*
X110847143Y-79557619D01*
X110751905Y-79700476D01*
X110704286Y-79890952D01*
X110704286Y-80271905D01*
X110751905Y-80367143D01*
X110799524Y-80414762D01*
X110894762Y-80462381D01*
X111085239Y-80462381D01*
X111180477Y-80414762D01*
X111228096Y-80367143D01*
X111275715Y-80271905D01*
X111275715Y-80033810D01*
X111228096Y-79938571D01*
X111180477Y-79890952D01*
X111085239Y-79843333D01*
X110894762Y-79843333D01*
X110799524Y-79890952D01*
X110751905Y-79938571D01*
X110704286Y-80033810D01*
X129373334Y-80462381D02*
X129040000Y-79986190D01*
X128801905Y-80462381D02*
X128801905Y-79462381D01*
X129182858Y-79462381D01*
X129278096Y-79510000D01*
X129325715Y-79557619D01*
X129373334Y-79652857D01*
X129373334Y-79795714D01*
X129325715Y-79890952D01*
X129278096Y-79938571D01*
X129182858Y-79986190D01*
X128801905Y-79986190D01*
X129706667Y-79462381D02*
X130373334Y-79462381D01*
X129944762Y-80462381D01*
X133183334Y-80462381D02*
X132850000Y-79986190D01*
X132611905Y-80462381D02*
X132611905Y-79462381D01*
X132992858Y-79462381D01*
X133088096Y-79510000D01*
X133135715Y-79557619D01*
X133183334Y-79652857D01*
X133183334Y-79795714D01*
X133135715Y-79890952D01*
X133088096Y-79938571D01*
X132992858Y-79986190D01*
X132611905Y-79986190D01*
X133754762Y-79890952D02*
X133659524Y-79843333D01*
X133611905Y-79795714D01*
X133564286Y-79700476D01*
X133564286Y-79652857D01*
X133611905Y-79557619D01*
X133659524Y-79510000D01*
X133754762Y-79462381D01*
X133945239Y-79462381D01*
X134040477Y-79510000D01*
X134088096Y-79557619D01*
X134135715Y-79652857D01*
X134135715Y-79700476D01*
X134088096Y-79795714D01*
X134040477Y-79843333D01*
X133945239Y-79890952D01*
X133754762Y-79890952D01*
X133659524Y-79938571D01*
X133611905Y-79986190D01*
X133564286Y-80081429D01*
X133564286Y-80271905D01*
X133611905Y-80367143D01*
X133659524Y-80414762D01*
X133754762Y-80462381D01*
X133945239Y-80462381D01*
X134040477Y-80414762D01*
X134088096Y-80367143D01*
X134135715Y-80271905D01*
X134135715Y-80081429D01*
X134088096Y-79986190D01*
X134040477Y-79938571D01*
X133945239Y-79890952D01*
X153503334Y-80462381D02*
X153170000Y-79986190D01*
X152931905Y-80462381D02*
X152931905Y-79462381D01*
X153312858Y-79462381D01*
X153408096Y-79510000D01*
X153455715Y-79557619D01*
X153503334Y-79652857D01*
X153503334Y-79795714D01*
X153455715Y-79890952D01*
X153408096Y-79938571D01*
X153312858Y-79986190D01*
X152931905Y-79986190D01*
X153979524Y-80462381D02*
X154170000Y-80462381D01*
X154265239Y-80414762D01*
X154312858Y-80367143D01*
X154408096Y-80224286D01*
X154455715Y-80033810D01*
X154455715Y-79652857D01*
X154408096Y-79557619D01*
X154360477Y-79510000D01*
X154265239Y-79462381D01*
X154074762Y-79462381D01*
X153979524Y-79510000D01*
X153931905Y-79557619D01*
X153884286Y-79652857D01*
X153884286Y-79890952D01*
X153931905Y-79986190D01*
X153979524Y-80033810D01*
X154074762Y-80081429D01*
X154265239Y-80081429D01*
X154360477Y-80033810D01*
X154408096Y-79986190D01*
X154455715Y-79890952D01*
X156837143Y-80462381D02*
X156503809Y-79986190D01*
X156265714Y-80462381D02*
X156265714Y-79462381D01*
X156646667Y-79462381D01*
X156741905Y-79510000D01*
X156789524Y-79557619D01*
X156837143Y-79652857D01*
X156837143Y-79795714D01*
X156789524Y-79890952D01*
X156741905Y-79938571D01*
X156646667Y-79986190D01*
X156265714Y-79986190D01*
X157789524Y-80462381D02*
X157218095Y-80462381D01*
X157503809Y-80462381D02*
X157503809Y-79462381D01*
X157408571Y-79605238D01*
X157313333Y-79700476D01*
X157218095Y-79748095D01*
X158408571Y-79462381D02*
X158503810Y-79462381D01*
X158599048Y-79510000D01*
X158646667Y-79557619D01*
X158694286Y-79652857D01*
X158741905Y-79843333D01*
X158741905Y-80081429D01*
X158694286Y-80271905D01*
X158646667Y-80367143D01*
X158599048Y-80414762D01*
X158503810Y-80462381D01*
X158408571Y-80462381D01*
X158313333Y-80414762D01*
X158265714Y-80367143D01*
X158218095Y-80271905D01*
X158170476Y-80081429D01*
X158170476Y-79843333D01*
X158218095Y-79652857D01*
X158265714Y-79557619D01*
X158313333Y-79510000D01*
X158408571Y-79462381D01*
X128897143Y-107132381D02*
X128563809Y-106656190D01*
X128325714Y-107132381D02*
X128325714Y-106132381D01*
X128706667Y-106132381D01*
X128801905Y-106180000D01*
X128849524Y-106227619D01*
X128897143Y-106322857D01*
X128897143Y-106465714D01*
X128849524Y-106560952D01*
X128801905Y-106608571D01*
X128706667Y-106656190D01*
X128325714Y-106656190D01*
X129849524Y-107132381D02*
X129278095Y-107132381D01*
X129563809Y-107132381D02*
X129563809Y-106132381D01*
X129468571Y-106275238D01*
X129373333Y-106370476D01*
X129278095Y-106418095D01*
X130801905Y-107132381D02*
X130230476Y-107132381D01*
X130516190Y-107132381D02*
X130516190Y-106132381D01*
X130420952Y-106275238D01*
X130325714Y-106370476D01*
X130230476Y-106418095D01*
X128897143Y-110942381D02*
X128563809Y-110466190D01*
X128325714Y-110942381D02*
X128325714Y-109942381D01*
X128706667Y-109942381D01*
X128801905Y-109990000D01*
X128849524Y-110037619D01*
X128897143Y-110132857D01*
X128897143Y-110275714D01*
X128849524Y-110370952D01*
X128801905Y-110418571D01*
X128706667Y-110466190D01*
X128325714Y-110466190D01*
X129849524Y-110942381D02*
X129278095Y-110942381D01*
X129563809Y-110942381D02*
X129563809Y-109942381D01*
X129468571Y-110085238D01*
X129373333Y-110180476D01*
X129278095Y-110228095D01*
X130230476Y-110037619D02*
X130278095Y-109990000D01*
X130373333Y-109942381D01*
X130611429Y-109942381D01*
X130706667Y-109990000D01*
X130754286Y-110037619D01*
X130801905Y-110132857D01*
X130801905Y-110228095D01*
X130754286Y-110370952D01*
X130182857Y-110942381D01*
X130801905Y-110942381D01*
X128897143Y-123642381D02*
X128563809Y-123166190D01*
X128325714Y-123642381D02*
X128325714Y-122642381D01*
X128706667Y-122642381D01*
X128801905Y-122690000D01*
X128849524Y-122737619D01*
X128897143Y-122832857D01*
X128897143Y-122975714D01*
X128849524Y-123070952D01*
X128801905Y-123118571D01*
X128706667Y-123166190D01*
X128325714Y-123166190D01*
X129849524Y-123642381D02*
X129278095Y-123642381D01*
X129563809Y-123642381D02*
X129563809Y-122642381D01*
X129468571Y-122785238D01*
X129373333Y-122880476D01*
X129278095Y-122928095D01*
X130182857Y-122642381D02*
X130801905Y-122642381D01*
X130468571Y-123023333D01*
X130611429Y-123023333D01*
X130706667Y-123070952D01*
X130754286Y-123118571D01*
X130801905Y-123213810D01*
X130801905Y-123451905D01*
X130754286Y-123547143D01*
X130706667Y-123594762D01*
X130611429Y-123642381D01*
X130325714Y-123642381D01*
X130230476Y-123594762D01*
X130182857Y-123547143D01*
X128897143Y-127452381D02*
X128563809Y-126976190D01*
X128325714Y-127452381D02*
X128325714Y-126452381D01*
X128706667Y-126452381D01*
X128801905Y-126500000D01*
X128849524Y-126547619D01*
X128897143Y-126642857D01*
X128897143Y-126785714D01*
X128849524Y-126880952D01*
X128801905Y-126928571D01*
X128706667Y-126976190D01*
X128325714Y-126976190D01*
X129849524Y-127452381D02*
X129278095Y-127452381D01*
X129563809Y-127452381D02*
X129563809Y-126452381D01*
X129468571Y-126595238D01*
X129373333Y-126690476D01*
X129278095Y-126738095D01*
X130706667Y-126785714D02*
X130706667Y-127452381D01*
X130468571Y-126404762D02*
X130230476Y-127119048D01*
X130849524Y-127119048D01*
X95877143Y-126182381D02*
X95543809Y-125706190D01*
X95305714Y-126182381D02*
X95305714Y-125182381D01*
X95686667Y-125182381D01*
X95781905Y-125230000D01*
X95829524Y-125277619D01*
X95877143Y-125372857D01*
X95877143Y-125515714D01*
X95829524Y-125610952D01*
X95781905Y-125658571D01*
X95686667Y-125706190D01*
X95305714Y-125706190D01*
X96829524Y-126182381D02*
X96258095Y-126182381D01*
X96543809Y-126182381D02*
X96543809Y-125182381D01*
X96448571Y-125325238D01*
X96353333Y-125420476D01*
X96258095Y-125468095D01*
X97734286Y-125182381D02*
X97258095Y-125182381D01*
X97210476Y-125658571D01*
X97258095Y-125610952D01*
X97353333Y-125563333D01*
X97591429Y-125563333D01*
X97686667Y-125610952D01*
X97734286Y-125658571D01*
X97781905Y-125753810D01*
X97781905Y-125991905D01*
X97734286Y-126087143D01*
X97686667Y-126134762D01*
X97591429Y-126182381D01*
X97353333Y-126182381D01*
X97258095Y-126134762D01*
X97210476Y-126087143D01*
X94702381Y-102361905D02*
X95511905Y-102361905D01*
X95607143Y-102314286D01*
X95654762Y-102266667D01*
X95702381Y-102171429D01*
X95702381Y-101980952D01*
X95654762Y-101885714D01*
X95607143Y-101838095D01*
X95511905Y-101790476D01*
X94702381Y-101790476D01*
X94702381Y-101123810D02*
X94702381Y-101028571D01*
X94750000Y-100933333D01*
X94797619Y-100885714D01*
X94892857Y-100838095D01*
X95083333Y-100790476D01*
X95321429Y-100790476D01*
X95511905Y-100838095D01*
X95607143Y-100885714D01*
X95654762Y-100933333D01*
X95702381Y-101028571D01*
X95702381Y-101123810D01*
X95654762Y-101219048D01*
X95607143Y-101266667D01*
X95511905Y-101314286D01*
X95321429Y-101361905D01*
X95083333Y-101361905D01*
X94892857Y-101314286D01*
X94797619Y-101266667D01*
X94750000Y-101219048D01*
X94702381Y-101123810D01*
X55713381Y-122388095D02*
X56522905Y-122388095D01*
X56618143Y-122340476D01*
X56665762Y-122292857D01*
X56713381Y-122197619D01*
X56713381Y-122007142D01*
X56665762Y-121911904D01*
X56618143Y-121864285D01*
X56522905Y-121816666D01*
X55713381Y-121816666D01*
X56665762Y-121388095D02*
X56713381Y-121245238D01*
X56713381Y-121007142D01*
X56665762Y-120911904D01*
X56618143Y-120864285D01*
X56522905Y-120816666D01*
X56427667Y-120816666D01*
X56332429Y-120864285D01*
X56284810Y-120911904D01*
X56237190Y-121007142D01*
X56189571Y-121197619D01*
X56141952Y-121292857D01*
X56094333Y-121340476D01*
X55999095Y-121388095D01*
X55903857Y-121388095D01*
X55808619Y-121340476D01*
X55761000Y-121292857D01*
X55713381Y-121197619D01*
X55713381Y-120959523D01*
X55761000Y-120816666D01*
X56189571Y-120054761D02*
X56237190Y-119911904D01*
X56284810Y-119864285D01*
X56380048Y-119816666D01*
X56522905Y-119816666D01*
X56618143Y-119864285D01*
X56665762Y-119911904D01*
X56713381Y-120007142D01*
X56713381Y-120388095D01*
X55713381Y-120388095D01*
X55713381Y-120054761D01*
X55761000Y-119959523D01*
X55808619Y-119911904D01*
X55903857Y-119864285D01*
X55999095Y-119864285D01*
X56094333Y-119911904D01*
X56141952Y-119959523D01*
X56189571Y-120054761D01*
X56189571Y-120388095D01*
X55713381Y-119197619D02*
X55713381Y-119102380D01*
X55761000Y-119007142D01*
X55808619Y-118959523D01*
X55903857Y-118911904D01*
X56094333Y-118864285D01*
X56332429Y-118864285D01*
X56522905Y-118911904D01*
X56618143Y-118959523D01*
X56665762Y-119007142D01*
X56713381Y-119102380D01*
X56713381Y-119197619D01*
X56665762Y-119292857D01*
X56618143Y-119340476D01*
X56522905Y-119388095D01*
X56332429Y-119435714D01*
X56094333Y-119435714D01*
X55903857Y-119388095D01*
X55808619Y-119340476D01*
X55761000Y-119292857D01*
X55713381Y-119197619D01*
X110013809Y-124436190D02*
X110013809Y-124912381D01*
X109680476Y-123912381D02*
X110013809Y-124436190D01*
X110347143Y-123912381D01*
X110870952Y-123912381D02*
X110966191Y-123912381D01*
X111061429Y-123960000D01*
X111109048Y-124007619D01*
X111156667Y-124102857D01*
X111204286Y-124293333D01*
X111204286Y-124531429D01*
X111156667Y-124721905D01*
X111109048Y-124817143D01*
X111061429Y-124864762D01*
X110966191Y-124912381D01*
X110870952Y-124912381D01*
X110775714Y-124864762D01*
X110728095Y-124817143D01*
X110680476Y-124721905D01*
X110632857Y-124531429D01*
X110632857Y-124293333D01*
X110680476Y-124102857D01*
X110728095Y-124007619D01*
X110775714Y-123960000D01*
X110870952Y-123912381D01*
X84272381Y-116546190D02*
X83272381Y-116546190D01*
X84177143Y-115498571D02*
X84224762Y-115546190D01*
X84272381Y-115689047D01*
X84272381Y-115784285D01*
X84224762Y-115927143D01*
X84129524Y-116022381D01*
X84034286Y-116070000D01*
X83843810Y-116117619D01*
X83700952Y-116117619D01*
X83510476Y-116070000D01*
X83415238Y-116022381D01*
X83320000Y-115927143D01*
X83272381Y-115784285D01*
X83272381Y-115689047D01*
X83320000Y-115546190D01*
X83367619Y-115498571D01*
X83272381Y-114879524D02*
X83272381Y-114784285D01*
X83320000Y-114689047D01*
X83367619Y-114641428D01*
X83462857Y-114593809D01*
X83653333Y-114546190D01*
X83891429Y-114546190D01*
X84081905Y-114593809D01*
X84177143Y-114641428D01*
X84224762Y-114689047D01*
X84272381Y-114784285D01*
X84272381Y-114879524D01*
X84224762Y-114974762D01*
X84177143Y-115022381D01*
X84081905Y-115070000D01*
X83891429Y-115117619D01*
X83653333Y-115117619D01*
X83462857Y-115070000D01*
X83367619Y-115022381D01*
X83320000Y-114974762D01*
X83272381Y-114879524D01*
X71572381Y-111228095D02*
X70572381Y-111228095D01*
X70572381Y-110990000D01*
X70620000Y-110847142D01*
X70715238Y-110751904D01*
X70810476Y-110704285D01*
X71000952Y-110656666D01*
X71143810Y-110656666D01*
X71334286Y-110704285D01*
X71429524Y-110751904D01*
X71524762Y-110847142D01*
X71572381Y-110990000D01*
X71572381Y-111228095D01*
X70572381Y-110037619D02*
X70572381Y-109942380D01*
X70620000Y-109847142D01*
X70667619Y-109799523D01*
X70762857Y-109751904D01*
X70953333Y-109704285D01*
X71191429Y-109704285D01*
X71381905Y-109751904D01*
X71477143Y-109799523D01*
X71524762Y-109847142D01*
X71572381Y-109942380D01*
X71572381Y-110037619D01*
X71524762Y-110132857D01*
X71477143Y-110180476D01*
X71381905Y-110228095D01*
X71191429Y-110275714D01*
X70953333Y-110275714D01*
X70762857Y-110228095D01*
X70667619Y-110180476D01*
X70620000Y-110132857D01*
X70572381Y-110037619D01*
X75382381Y-111228095D02*
X74382381Y-111228095D01*
X74382381Y-110990000D01*
X74430000Y-110847142D01*
X74525238Y-110751904D01*
X74620476Y-110704285D01*
X74810952Y-110656666D01*
X74953810Y-110656666D01*
X75144286Y-110704285D01*
X75239524Y-110751904D01*
X75334762Y-110847142D01*
X75382381Y-110990000D01*
X75382381Y-111228095D01*
X75382381Y-109704285D02*
X75382381Y-110275714D01*
X75382381Y-109990000D02*
X74382381Y-109990000D01*
X74525238Y-110085238D01*
X74620476Y-110180476D01*
X74668095Y-110275714D01*
X60142381Y-108132381D02*
X59142381Y-108132381D01*
X59237619Y-107703810D02*
X59190000Y-107656191D01*
X59142381Y-107560953D01*
X59142381Y-107322857D01*
X59190000Y-107227619D01*
X59237619Y-107180000D01*
X59332857Y-107132381D01*
X59428095Y-107132381D01*
X59570952Y-107180000D01*
X60142381Y-107751429D01*
X60142381Y-107132381D01*
X60047143Y-106132381D02*
X60094762Y-106180000D01*
X60142381Y-106322857D01*
X60142381Y-106418095D01*
X60094762Y-106560953D01*
X59999524Y-106656191D01*
X59904286Y-106703810D01*
X59713810Y-106751429D01*
X59570952Y-106751429D01*
X59380476Y-106703810D01*
X59285238Y-106656191D01*
X59190000Y-106560953D01*
X59142381Y-106418095D01*
X59142381Y-106322857D01*
X59190000Y-106180000D01*
X59237619Y-106132381D01*
X59142381Y-105513334D02*
X59142381Y-105418095D01*
X59190000Y-105322857D01*
X59237619Y-105275238D01*
X59332857Y-105227619D01*
X59523333Y-105180000D01*
X59761429Y-105180000D01*
X59951905Y-105227619D01*
X60047143Y-105275238D01*
X60094762Y-105322857D01*
X60142381Y-105418095D01*
X60142381Y-105513334D01*
X60094762Y-105608572D01*
X60047143Y-105656191D01*
X59951905Y-105703810D01*
X59761429Y-105751429D01*
X59523333Y-105751429D01*
X59332857Y-105703810D01*
X59237619Y-105656191D01*
X59190000Y-105608572D01*
X59142381Y-105513334D01*
X84756667Y-100258571D02*
X84423333Y-100258571D01*
X84423333Y-100782381D02*
X84423333Y-99782381D01*
X84899524Y-99782381D01*
X85470952Y-99782381D02*
X85566191Y-99782381D01*
X85661429Y-99830000D01*
X85709048Y-99877619D01*
X85756667Y-99972857D01*
X85804286Y-100163333D01*
X85804286Y-100401429D01*
X85756667Y-100591905D01*
X85709048Y-100687143D01*
X85661429Y-100734762D01*
X85566191Y-100782381D01*
X85470952Y-100782381D01*
X85375714Y-100734762D01*
X85328095Y-100687143D01*
X85280476Y-100591905D01*
X85232857Y-100401429D01*
X85232857Y-100163333D01*
X85280476Y-99972857D01*
X85328095Y-99877619D01*
X85375714Y-99830000D01*
X85470952Y-99782381D01*
M02*
