M48
;DRILL file {KiCad 4.0.1-stable} date Mon 28 Dec 2015 01:36:42 PM CET
;FORMAT={-:-/ absolute / inch / decimal}
FMAT,2
INCH,TZ
T1C0.016
T2C0.028
T3C0.031
T4C0.032
T5C0.032
T6C0.039
T7C0.040
T8C0.045
T9C0.049
T10C0.059
T11C0.070
T12C0.091
%
G90
G05
M72
T1
X2.7Y-3.9
X3.2Y-3.25
X3.2Y-3.4
X3.2Y-3.55
X3.2Y-3.7
X3.3Y-3.8
X3.3Y-4.2
X3.3Y-4.45
X3.45Y-3.95
X3.5Y-4.2
X3.55Y-3.15
X3.55Y-3.7
X3.55Y-3.9
X3.6Y-3.2
X3.6Y-3.7
X3.6Y-3.9
X3.7Y-4.1
X4.2Y-3.4
X4.45Y-3.15
X4.75Y-4.9
X4.8Y-4.5
X4.85Y-4.9
X4.85Y-5.
X4.95Y-4.15
X4.95Y-5.
X5.05Y-5.1
X5.1Y-5.15
X5.15Y-3.85
X5.15Y-4.1
X5.4Y-3.85
X5.45Y-3.15
X5.8Y-5.15
X6.25Y-5.
T2
X2.8501Y-4.15
X2.8501Y-4.55
X3.0001Y-4.15
X3.0001Y-4.55
T3
X2.9Y-3.65
X3.45Y-4.4
X3.45Y-4.7
X3.55Y-4.4
X3.55Y-4.7
X3.65Y-4.4
X3.65Y-4.7
X3.75Y-4.4
X3.75Y-4.7
X3.8Y-3.65
X3.85Y-4.4
X3.85Y-4.7
X3.9Y-3.85
X3.9Y-4.15
X3.95Y-4.4
X3.95Y-4.7
X4.Y-3.85
X4.Y-4.15
X4.05Y-4.4
X4.05Y-4.7
X4.05Y-5.05
X4.1Y-3.85
X4.1Y-4.15
X4.15Y-4.4
X4.15Y-4.7
X4.15Y-4.85
X4.2Y-3.85
X4.2Y-4.15
X4.25Y-4.4
X4.25Y-4.7
X4.3Y-3.85
X4.3Y-4.15
X4.35Y-4.4
X4.35Y-4.7
X4.4Y-3.85
X4.4Y-4.15
X4.45Y-4.4
X4.45Y-4.7
X4.5Y-3.85
X4.5Y-4.15
X4.55Y-4.4
X4.55Y-4.7
X4.6Y-3.85
X4.6Y-4.15
X4.65Y-4.4
X4.65Y-4.7
X4.65Y-5.05
X4.7Y-3.65
X4.75Y-4.4
X4.75Y-4.7
X4.9Y-3.85
X5.35Y-4.6
X5.4Y-3.95
X5.65Y-3.65
T4
X2.9984Y-3.65
X3.7016Y-3.65
X3.9516Y-5.05
X4.0516Y-4.85
X4.2539Y-5.05
X4.4461Y-5.05
X4.7484Y-5.05
X4.7984Y-3.65
X4.8016Y-3.85
X5.35Y-4.6984
X5.4Y-4.0484
X5.7484Y-3.65
T5
X2.5713Y-4.7
X2.5713Y-4.8
X2.65Y-4.7
X2.65Y-4.8
T6
X2.8Y-5.05
X2.85Y-3.95
X2.85Y-4.7
X3.Y-4.85
X3.2Y-5.05
X3.25Y-3.95
X3.25Y-4.7
X3.3Y-3.25
X3.3Y-3.65
X3.4Y-4.85
X3.45Y-3.25
X3.45Y-3.65
X3.55Y-4.85
X3.95Y-4.85
X4.2Y-3.25
X4.2Y-3.65
X4.35Y-3.25
X4.35Y-3.65
X5.1Y-3.25
X5.1Y-3.65
X5.2Y-4.2
X5.2Y-4.35
X5.2Y-4.85
X5.2Y-5.
X5.25Y-3.25
X5.25Y-3.65
X5.6Y-4.2
X5.6Y-4.35
X5.6Y-4.85
X5.6Y-5.
X6.05Y-3.25
X6.05Y-3.65
X6.2Y-3.25
X6.2Y-3.65
T7
X2.45Y-4.1
X2.45Y-4.2
X2.45Y-4.3
X2.75Y-3.5
X2.85Y-3.05
X2.85Y-3.5
X2.95Y-3.05
X2.95Y-3.5
X3.05Y-3.05
X3.15Y-3.05
X3.55Y-5.
X3.65Y-3.5
X3.65Y-5.
X3.75Y-3.05
X3.75Y-3.5
X3.85Y-3.05
X3.85Y-3.5
X3.95Y-3.05
X4.05Y-3.05
X4.55Y-3.5
X4.65Y-3.05
X4.65Y-3.5
X4.75Y-3.05
X4.75Y-3.5
X4.85Y-3.05
X4.95Y-3.05
X5.5Y-3.5
X5.55Y-3.85
X5.55Y-3.95
X5.55Y-4.05
X5.55Y-4.5
X5.55Y-4.6
X5.55Y-4.7
X5.6Y-3.05
X5.6Y-3.5
X5.7Y-3.05
X5.7Y-3.5
X5.8Y-3.05
X5.9Y-3.05
X6.1Y-3.9
X6.1Y-4.
X6.1Y-4.1
X6.1Y-4.2
X6.1Y-4.55
X6.1Y-4.65
X6.1Y-4.75
X6.1Y-4.85
T8
X2.9Y-3.35
X3.Y-3.35
X3.1Y-3.35
X3.8Y-3.35
X3.9Y-3.35
X4.Y-3.35
X4.7Y-3.35
X4.8Y-3.35
X4.9Y-3.35
X5.65Y-3.35
X5.75Y-3.35
X5.75Y-3.95
X5.75Y-4.05
X5.75Y-4.15
X5.75Y-4.65
X5.75Y-4.75
X5.75Y-4.85
X5.85Y-3.35
T9
X3.05Y-2.965
X3.95Y-2.965
X4.85Y-2.965
X5.8Y-2.965
X6.185Y-4.1
X6.185Y-4.75
T10
X3.7Y-3.85
X4.05Y-3.5
X4.6Y-3.65
X5.05Y-3.75
X5.35Y-4.3
T11
X2.5Y-3.2
X2.5Y-3.4
X2.5Y-3.6
X2.5Y-3.8
T12
X2.465Y-4.5138
X2.465Y-4.9862
T0
M30
