G04 #@! TF.FileFunction,Copper,L1,Top,Signal*
%FSLAX46Y46*%
G04 Gerber Fmt 4.6, Leading zero omitted, Abs format (unit mm)*
G04 Created by KiCad (PCBNEW 4.0.1-stable) date Mon 28 Dec 2015 01:36:40 PM CET*
%MOMM*%
G01*
G04 APERTURE LIST*
%ADD10C,0.100000*%
%ADD11R,1.727200X2.032000*%
%ADD12O,1.727200X2.032000*%
%ADD13R,1.300000X1.300000*%
%ADD14C,1.300000*%
%ADD15R,1.676400X1.676400*%
%ADD16C,1.676400*%
%ADD17C,1.250000*%
%ADD18R,2.032000X2.032000*%
%ADD19O,2.032000X2.032000*%
%ADD20R,2.032000X1.727200*%
%ADD21O,2.032000X1.727200*%
%ADD22C,2.794000*%
%ADD23O,2.032000X2.540000*%
%ADD24O,2.540000X2.032000*%
%ADD25C,1.998980*%
%ADD26O,1.600000X1.600000*%
%ADD27C,1.524000*%
%ADD28C,2.700020*%
%ADD29C,1.501140*%
%ADD30C,1.699260*%
%ADD31R,1.699260X1.699260*%
%ADD32C,2.000000*%
%ADD33C,0.600000*%
%ADD34C,0.250000*%
%ADD35C,1.500000*%
G04 APERTURE END LIST*
D10*
D11*
X69850000Y-88900000D03*
D12*
X72390000Y-88900000D03*
X74930000Y-88900000D03*
D13*
X105410000Y-123190000D03*
D14*
X102910000Y-123190000D03*
D13*
X124460000Y-97790000D03*
D14*
X121960000Y-97790000D03*
D13*
X73660000Y-92710000D03*
D14*
X76160000Y-92710000D03*
D13*
X96520000Y-92710000D03*
D14*
X94020000Y-92710000D03*
D13*
X119380000Y-92710000D03*
D14*
X121880000Y-92710000D03*
D13*
X143510000Y-92710000D03*
D14*
X146010000Y-92710000D03*
D13*
X137160000Y-100330000D03*
D14*
X137160000Y-102830000D03*
D13*
X135890000Y-116840000D03*
D14*
X135890000Y-119340000D03*
D13*
X102870000Y-128270000D03*
D14*
X100370000Y-128270000D03*
D13*
X118110000Y-128270000D03*
D14*
X120610000Y-128270000D03*
D15*
X72390000Y-77470000D03*
D16*
X74930000Y-77470000D03*
X77470000Y-77470000D03*
X80010000Y-77470000D03*
D17*
X77470000Y-75310000D03*
D15*
X95250000Y-77470000D03*
D16*
X97790000Y-77470000D03*
X100330000Y-77470000D03*
X102870000Y-77470000D03*
D17*
X100330000Y-75310000D03*
D15*
X118110000Y-77470000D03*
D16*
X120650000Y-77470000D03*
X123190000Y-77470000D03*
X125730000Y-77470000D03*
D17*
X123190000Y-75310000D03*
D15*
X142240000Y-77470000D03*
D16*
X144780000Y-77470000D03*
X147320000Y-77470000D03*
X149860000Y-77470000D03*
D17*
X147320000Y-75310000D03*
D15*
X154940000Y-99060000D03*
D16*
X154940000Y-101600000D03*
X154940000Y-104140000D03*
X154940000Y-106680000D03*
D17*
X157100000Y-104140000D03*
D15*
X154940000Y-115570000D03*
D16*
X154940000Y-118110000D03*
X154940000Y-120650000D03*
X154940000Y-123190000D03*
D17*
X157100000Y-120650000D03*
D18*
X90170000Y-127000000D03*
D19*
X92710000Y-127000000D03*
D11*
X92710000Y-88900000D03*
D12*
X95250000Y-88900000D03*
X97790000Y-88900000D03*
D11*
X115570000Y-88900000D03*
D12*
X118110000Y-88900000D03*
X120650000Y-88900000D03*
D11*
X139700000Y-88900000D03*
D12*
X142240000Y-88900000D03*
X144780000Y-88900000D03*
D20*
X140970000Y-97790000D03*
D21*
X140970000Y-100330000D03*
X140970000Y-102870000D03*
D20*
X140970000Y-114300000D03*
D21*
X140970000Y-116840000D03*
X140970000Y-119380000D03*
D22*
X63500000Y-86360000D03*
X63500000Y-81280000D03*
X63500000Y-91440000D03*
X63500000Y-96520000D03*
D23*
X76200000Y-85090000D03*
X78740000Y-85090000D03*
X73660000Y-85090000D03*
X99060000Y-85090000D03*
X101600000Y-85090000D03*
X96520000Y-85090000D03*
X121920000Y-85090000D03*
X124460000Y-85090000D03*
X119380000Y-85090000D03*
X146050000Y-85090000D03*
X148590000Y-85090000D03*
X143510000Y-85090000D03*
D24*
X146050000Y-102870000D03*
X146050000Y-105410000D03*
X146050000Y-100330000D03*
X146050000Y-120650000D03*
X146050000Y-123190000D03*
X146050000Y-118110000D03*
D25*
X81280000Y-128270000D03*
X71120000Y-128270000D03*
X82550000Y-119380000D03*
X72390000Y-119380000D03*
X86360000Y-123190000D03*
X76200000Y-123190000D03*
X83820000Y-82550000D03*
X83820000Y-92710000D03*
X87630000Y-82550000D03*
X87630000Y-92710000D03*
X106680000Y-82550000D03*
X106680000Y-92710000D03*
X110490000Y-82550000D03*
X110490000Y-92710000D03*
X129540000Y-82550000D03*
X129540000Y-92710000D03*
X133350000Y-82550000D03*
X133350000Y-92710000D03*
X153670000Y-82550000D03*
X153670000Y-92710000D03*
X157480000Y-82550000D03*
X157480000Y-92710000D03*
X142240000Y-106680000D03*
X132080000Y-106680000D03*
X142240000Y-110490000D03*
X132080000Y-110490000D03*
X142240000Y-123190000D03*
X132080000Y-123190000D03*
X142240000Y-127000000D03*
X132080000Y-127000000D03*
X100330000Y-123190000D03*
X90170000Y-123190000D03*
D26*
X99060000Y-105410000D03*
X101600000Y-105410000D03*
X104140000Y-105410000D03*
X106680000Y-105410000D03*
X109220000Y-105410000D03*
X111760000Y-105410000D03*
X114300000Y-105410000D03*
X116840000Y-105410000D03*
X116840000Y-97790000D03*
X114300000Y-97790000D03*
X111760000Y-97790000D03*
X109220000Y-97790000D03*
X106680000Y-97790000D03*
X104140000Y-97790000D03*
X101600000Y-97790000D03*
X99060000Y-97790000D03*
D27*
X67310000Y-119380000D03*
X67310000Y-121920000D03*
X65311020Y-121920000D03*
X65311020Y-119380000D03*
D28*
X62611000Y-114650520D03*
X62611000Y-126649480D03*
D29*
X108049060Y-128270000D03*
X112930940Y-128270000D03*
D26*
X87630000Y-119380000D03*
X90170000Y-119380000D03*
X92710000Y-119380000D03*
X95250000Y-119380000D03*
X97790000Y-119380000D03*
X100330000Y-119380000D03*
X102870000Y-119380000D03*
X105410000Y-119380000D03*
X107950000Y-119380000D03*
X110490000Y-119380000D03*
X113030000Y-119380000D03*
X115570000Y-119380000D03*
X118110000Y-119380000D03*
X120650000Y-119380000D03*
X120650000Y-111760000D03*
X118110000Y-111760000D03*
X115570000Y-111760000D03*
X113030000Y-111760000D03*
X110490000Y-111760000D03*
X107950000Y-111760000D03*
X105410000Y-111760000D03*
X102870000Y-111760000D03*
X100330000Y-111760000D03*
X97790000Y-111760000D03*
X95250000Y-111760000D03*
X92710000Y-111760000D03*
X90170000Y-111760000D03*
X87630000Y-111760000D03*
D30*
X72392540Y-115570520D03*
D31*
X72392540Y-105410520D03*
D30*
X76202540Y-115570520D03*
D31*
X76202540Y-105410520D03*
D20*
X62230000Y-104140000D03*
D21*
X62230000Y-106680000D03*
X62230000Y-109220000D03*
D25*
X82550000Y-100330000D03*
X72390000Y-100330000D03*
D32*
X93980000Y-97790000D03*
X135890000Y-109220000D03*
X116840000Y-92710000D03*
X128270000Y-95250000D03*
X102870000Y-88900000D03*
D33*
X68580000Y-99060000D03*
X81280000Y-93980000D03*
X81280000Y-90170000D03*
X81280000Y-86360000D03*
X81280000Y-82550000D03*
X87630000Y-100330000D03*
X83820000Y-96520000D03*
X88900000Y-106680000D03*
X83820000Y-106680000D03*
X83820000Y-113030000D03*
X90170000Y-93980000D03*
X90170000Y-99060000D03*
X90170000Y-80010000D03*
X91440000Y-93980000D03*
X91440000Y-99060000D03*
X91440000Y-81280000D03*
X93980000Y-104140000D03*
X106680000Y-86360000D03*
X113030000Y-80010000D03*
X138430000Y-80010000D03*
X130810000Y-97790000D03*
X125730000Y-105410000D03*
X121920000Y-114300000D03*
X130810000Y-104140000D03*
X137160000Y-97790000D03*
X158750000Y-127000000D03*
X147320000Y-130810000D03*
X129540000Y-130810000D03*
X123190000Y-127000000D03*
X120650000Y-124460000D03*
X128270000Y-129540000D03*
X125730000Y-127000000D03*
X123190000Y-124460000D03*
D34*
X102870000Y-119380000D02*
X102870000Y-116840000D01*
X102870000Y-116840000D02*
X107950000Y-111760000D01*
X67310000Y-121920000D02*
X67310000Y-124460000D01*
X67310000Y-124460000D02*
X71120000Y-128270000D01*
X71120000Y-128270000D02*
X73660000Y-130810000D01*
X97790000Y-125730000D02*
X100330000Y-123190000D01*
X97790000Y-130810000D02*
X97790000Y-125730000D01*
X73660000Y-130810000D02*
X97790000Y-130810000D01*
X102870000Y-119380000D02*
X102870000Y-123150000D01*
X102870000Y-123150000D02*
X102830000Y-123190000D01*
X102830000Y-123190000D02*
X100330000Y-123190000D01*
D35*
X92710000Y-96520000D02*
X87630000Y-96520000D01*
X92710000Y-96520000D02*
X93980000Y-97790000D01*
X83820000Y-100330000D02*
X82550000Y-100330000D01*
X87630000Y-96520000D02*
X83820000Y-100330000D01*
X82550000Y-100330000D02*
X78740000Y-100330000D01*
X78740000Y-100330000D02*
X73660000Y-95250000D01*
X73660000Y-95250000D02*
X73660000Y-92710000D01*
X135890000Y-109220000D02*
X135890000Y-116840000D01*
X143510000Y-92710000D02*
X143510000Y-91440000D01*
X142240000Y-90170000D02*
X142240000Y-88900000D01*
X143510000Y-91440000D02*
X142240000Y-90170000D01*
X116840000Y-97790000D02*
X121960000Y-97790000D01*
X137160000Y-100330000D02*
X140970000Y-100330000D01*
X135890000Y-116840000D02*
X140970000Y-116840000D01*
X119380000Y-92710000D02*
X119380000Y-95250000D01*
X119380000Y-95250000D02*
X128270000Y-95250000D01*
X119380000Y-92710000D02*
X119380000Y-91440000D01*
X118110000Y-90170000D02*
X118110000Y-88900000D01*
X119380000Y-91440000D02*
X118110000Y-90170000D01*
X102870000Y-88900000D02*
X111760000Y-88900000D01*
X111760000Y-88900000D02*
X115570000Y-92710000D01*
X115570000Y-92710000D02*
X116840000Y-92710000D01*
X116840000Y-92710000D02*
X119380000Y-92710000D01*
X96520000Y-92710000D02*
X96520000Y-91440000D01*
X95250000Y-90170000D02*
X95250000Y-88900000D01*
X96520000Y-91440000D02*
X95250000Y-90170000D01*
X73660000Y-92710000D02*
X72390000Y-91440000D01*
X72390000Y-91440000D02*
X72390000Y-88900000D01*
D34*
X108049060Y-128270000D02*
X108049060Y-119479060D01*
X108049060Y-119479060D02*
X107950000Y-119380000D01*
X102870000Y-128270000D02*
X108049060Y-128270000D01*
X112930940Y-128270000D02*
X112930940Y-128170940D01*
X112930940Y-128170940D02*
X110490000Y-125730000D01*
X110490000Y-125730000D02*
X110490000Y-119380000D01*
X118110000Y-128270000D02*
X112930940Y-128270000D01*
X67310000Y-119380000D02*
X72390000Y-119380000D01*
X72390000Y-119380000D02*
X72390000Y-115573060D01*
X72390000Y-115573060D02*
X72392540Y-115570520D01*
X76200000Y-123190000D02*
X76200000Y-115573060D01*
X76200000Y-115573060D02*
X76202540Y-115570520D01*
D35*
X69850000Y-82550000D02*
X74930000Y-82550000D01*
X69850000Y-88900000D02*
X69850000Y-82550000D01*
X74930000Y-82550000D02*
X76200000Y-81280000D01*
X76200000Y-85090000D02*
X76200000Y-81280000D01*
X76200000Y-81280000D02*
X76200000Y-78740000D01*
X74930000Y-77470000D02*
X74930000Y-77470000D01*
X76200000Y-78740000D02*
X74930000Y-77470000D01*
D34*
X88900000Y-107950000D02*
X92710000Y-111760000D01*
X69850000Y-107950000D02*
X88900000Y-107950000D01*
X69850000Y-100330000D02*
X69850000Y-107950000D01*
X68580000Y-99060000D02*
X69850000Y-100330000D01*
X81280000Y-93980000D02*
X83820000Y-96520000D01*
X80010000Y-77470000D02*
X81280000Y-77470000D01*
X81280000Y-86360000D02*
X81280000Y-90170000D01*
X81280000Y-77470000D02*
X81280000Y-82550000D01*
X88900000Y-101600000D02*
X88900000Y-106680000D01*
X87630000Y-100330000D02*
X88900000Y-101600000D01*
X97790000Y-119380000D02*
X93980000Y-115570000D01*
X83820000Y-106680000D02*
X88900000Y-106680000D01*
X86360000Y-115570000D02*
X83820000Y-113030000D01*
X93980000Y-115570000D02*
X86360000Y-115570000D01*
D35*
X92710000Y-82550000D02*
X97790000Y-82550000D01*
X92710000Y-88900000D02*
X92710000Y-82550000D01*
X97790000Y-82550000D02*
X99060000Y-81280000D01*
X99060000Y-85090000D02*
X99060000Y-81280000D01*
X99060000Y-81280000D02*
X99060000Y-78740000D01*
X97790000Y-77470000D02*
X97790000Y-77470000D01*
X99060000Y-78740000D02*
X97790000Y-77470000D01*
D34*
X90170000Y-81280000D02*
X90170000Y-83820000D01*
X90170000Y-83820000D02*
X87630000Y-86360000D01*
X87630000Y-86360000D02*
X87630000Y-90170000D01*
X87630000Y-90170000D02*
X90170000Y-92710000D01*
X90170000Y-92710000D02*
X90170000Y-93980000D01*
X90170000Y-99060000D02*
X90170000Y-106680000D01*
X95250000Y-111760000D02*
X90170000Y-106680000D01*
X90170000Y-80010000D02*
X90170000Y-81280000D01*
X91440000Y-81280000D02*
X91440000Y-85090000D01*
X91440000Y-85090000D02*
X90170000Y-86360000D01*
X90170000Y-86360000D02*
X90170000Y-90170000D01*
X90170000Y-90170000D02*
X91440000Y-91440000D01*
X91440000Y-91440000D02*
X91440000Y-93980000D01*
X91440000Y-99060000D02*
X93980000Y-101600000D01*
X93980000Y-101600000D02*
X97790000Y-101600000D01*
X101600000Y-105410000D02*
X97790000Y-101600000D01*
X115570000Y-111760000D02*
X114300000Y-110490000D01*
X106680000Y-110490000D02*
X101600000Y-105410000D01*
X113030000Y-110490000D02*
X106680000Y-110490000D01*
X114300000Y-110490000D02*
X113030000Y-110490000D01*
D35*
X115570000Y-88900000D02*
X115570000Y-82550000D01*
X120650000Y-82550000D02*
X121920000Y-80010000D01*
X115570000Y-82550000D02*
X120650000Y-82550000D01*
X121920000Y-85090000D02*
X121920000Y-80010000D01*
X120650000Y-78740000D02*
X120650000Y-77470000D01*
X121920000Y-80010000D02*
X120650000Y-78740000D01*
D34*
X93980000Y-107950000D02*
X97790000Y-111760000D01*
X93980000Y-104140000D02*
X93980000Y-107950000D01*
X113030000Y-86360000D02*
X106680000Y-86360000D01*
X113030000Y-80010000D02*
X113030000Y-86360000D01*
X118110000Y-111760000D02*
X115570000Y-109220000D01*
X107950000Y-109220000D02*
X104140000Y-105410000D01*
X115570000Y-109220000D02*
X107950000Y-109220000D01*
D35*
X139700000Y-82550000D02*
X144780000Y-82550000D01*
X144780000Y-82550000D02*
X146050000Y-82550000D01*
X139700000Y-88900000D02*
X139700000Y-82550000D01*
X146050000Y-85090000D02*
X146050000Y-82550000D01*
X146050000Y-82550000D02*
X146050000Y-80010000D01*
X146050000Y-78740000D02*
X144780000Y-77470000D01*
X146050000Y-80010000D02*
X146050000Y-78740000D01*
X144780000Y-77470000D02*
X144780000Y-77470000D01*
D34*
X135890000Y-80010000D02*
X138430000Y-80010000D01*
X135890000Y-80010000D02*
X135890000Y-92710000D01*
X130810000Y-97790000D02*
X135890000Y-92710000D01*
X125730000Y-110490000D02*
X125730000Y-105410000D01*
X121920000Y-114300000D02*
X125730000Y-110490000D01*
X137160000Y-97790000D02*
X130810000Y-104140000D01*
D35*
X140970000Y-97790000D02*
X149860000Y-97790000D01*
X149860000Y-97790000D02*
X149860000Y-102870000D01*
X146050000Y-102870000D02*
X149860000Y-102870000D01*
X149860000Y-102870000D02*
X152400000Y-102870000D01*
X153670000Y-101600000D02*
X154940000Y-101600000D01*
X152400000Y-102870000D02*
X153670000Y-101600000D01*
D34*
X118110000Y-119380000D02*
X118110000Y-121920000D01*
X151130000Y-127000000D02*
X158750000Y-127000000D01*
X147320000Y-130810000D02*
X151130000Y-127000000D01*
X127000000Y-130810000D02*
X129540000Y-130810000D01*
X123190000Y-127000000D02*
X127000000Y-130810000D01*
X118110000Y-121920000D02*
X120650000Y-124460000D01*
X113030000Y-119380000D02*
X113030000Y-123190000D01*
X158750000Y-110490000D02*
X154940000Y-106680000D01*
X158750000Y-125730000D02*
X158750000Y-110490000D01*
X149860000Y-125730000D02*
X158750000Y-125730000D01*
X144780000Y-130810000D02*
X149860000Y-125730000D01*
X132080000Y-130810000D02*
X144780000Y-130810000D01*
X127000000Y-125730000D02*
X132080000Y-130810000D01*
X115570000Y-125730000D02*
X127000000Y-125730000D01*
X113030000Y-123190000D02*
X115570000Y-125730000D01*
D35*
X140970000Y-114300000D02*
X149860000Y-114300000D01*
X151130000Y-115570000D02*
X151130000Y-120650000D01*
X149860000Y-114300000D02*
X151130000Y-115570000D01*
X146050000Y-120650000D02*
X151130000Y-120650000D01*
X153670000Y-118110000D02*
X154940000Y-118110000D01*
X151130000Y-120650000D02*
X153670000Y-118110000D01*
D34*
X120650000Y-119380000D02*
X120650000Y-121920000D01*
X125730000Y-127000000D02*
X128270000Y-129540000D01*
X120650000Y-121920000D02*
X123190000Y-124460000D01*
X154940000Y-123190000D02*
X151130000Y-123190000D01*
X120650000Y-114300000D02*
X120650000Y-111760000D01*
X125730000Y-119380000D02*
X120650000Y-114300000D01*
X125730000Y-123190000D02*
X125730000Y-119380000D01*
X132080000Y-129540000D02*
X125730000Y-123190000D01*
X144780000Y-129540000D02*
X132080000Y-129540000D01*
X151130000Y-123190000D02*
X144780000Y-129540000D01*
X120650000Y-111760000D02*
X116840000Y-107950000D01*
X109220000Y-107950000D02*
X106680000Y-105410000D01*
X116840000Y-107950000D02*
X109220000Y-107950000D01*
X90170000Y-123190000D02*
X90170000Y-127000000D01*
X86360000Y-123190000D02*
X87630000Y-123190000D01*
X91440000Y-120650000D02*
X92710000Y-119380000D01*
X90170000Y-120650000D02*
X91440000Y-120650000D01*
X87630000Y-123190000D02*
X90170000Y-120650000D01*
X82550000Y-119380000D02*
X83820000Y-119380000D01*
X92710000Y-116840000D02*
X95250000Y-119380000D01*
X86360000Y-116840000D02*
X92710000Y-116840000D01*
X83820000Y-119380000D02*
X86360000Y-116840000D01*
X83820000Y-92710000D02*
X82550000Y-92710000D01*
X78740000Y-88900000D02*
X74930000Y-88900000D01*
X82550000Y-92710000D02*
X78740000Y-88900000D01*
D35*
X73660000Y-86360000D02*
X73660000Y-85090000D01*
X74930000Y-87630000D02*
X73660000Y-86360000D01*
X73660000Y-86360000D02*
X74930000Y-87630000D01*
X74930000Y-87630000D02*
X73660000Y-86360000D01*
X74930000Y-88900000D02*
X74930000Y-87630000D01*
D34*
X106680000Y-92710000D02*
X101600000Y-92710000D01*
X101600000Y-92710000D02*
X97790000Y-88900000D01*
D35*
X97790000Y-88900000D02*
X97790000Y-87630000D01*
X96520000Y-86360000D02*
X96520000Y-85090000D01*
X97790000Y-87630000D02*
X96520000Y-86360000D01*
D34*
X129540000Y-92710000D02*
X124460000Y-92710000D01*
X124460000Y-92710000D02*
X120650000Y-88900000D01*
D35*
X120650000Y-88900000D02*
X120650000Y-87630000D01*
X119380000Y-86360000D02*
X119380000Y-85090000D01*
X120650000Y-87630000D02*
X119380000Y-86360000D01*
X144780000Y-88900000D02*
X144780000Y-87630000D01*
X143510000Y-86360000D02*
X143510000Y-85090000D01*
X144780000Y-87630000D02*
X143510000Y-86360000D01*
D34*
X153670000Y-92710000D02*
X149860000Y-92710000D01*
X148590000Y-88900000D02*
X144780000Y-88900000D01*
X148590000Y-91440000D02*
X148590000Y-88900000D01*
X149860000Y-92710000D02*
X148590000Y-91440000D01*
X132080000Y-106680000D02*
X137160000Y-106680000D01*
X137160000Y-106680000D02*
X140970000Y-102870000D01*
D35*
X140970000Y-102870000D02*
X143510000Y-102870000D01*
X143510000Y-100330000D02*
X146050000Y-100330000D01*
X143510000Y-102870000D02*
X143510000Y-100330000D01*
X140970000Y-119380000D02*
X143510000Y-119380000D01*
X144780000Y-118110000D02*
X146050000Y-118110000D01*
X143510000Y-119380000D02*
X144780000Y-118110000D01*
D34*
X132080000Y-123190000D02*
X133350000Y-121920000D01*
X138430000Y-121920000D02*
X140970000Y-119380000D01*
X133350000Y-121920000D02*
X138430000Y-121920000D01*
X80010000Y-85090000D02*
X78740000Y-85090000D01*
X80010000Y-85090000D02*
X81280000Y-85090000D01*
X81280000Y-85090000D02*
X83820000Y-82550000D01*
X83820000Y-82550000D02*
X87630000Y-82550000D01*
X101600000Y-85090000D02*
X104140000Y-85090000D01*
X104140000Y-85090000D02*
X106680000Y-82550000D01*
X106680000Y-82550000D02*
X110490000Y-82550000D01*
X124460000Y-85090000D02*
X127000000Y-85090000D01*
X127000000Y-85090000D02*
X129540000Y-82550000D01*
X129540000Y-82550000D02*
X133350000Y-82550000D01*
X153670000Y-82550000D02*
X152400000Y-82550000D01*
X151130000Y-83820000D02*
X148590000Y-85090000D01*
X152400000Y-82550000D02*
X151130000Y-83820000D01*
X157480000Y-82550000D02*
X153670000Y-82550000D01*
X142240000Y-110490000D02*
X142240000Y-106680000D01*
X142240000Y-106680000D02*
X143510000Y-105410000D01*
X143510000Y-105410000D02*
X146050000Y-105410000D01*
X142240000Y-127000000D02*
X142240000Y-123190000D01*
X99060000Y-97790000D02*
X97790000Y-97790000D01*
X90170000Y-95250000D02*
X87630000Y-92710000D01*
X95250000Y-95250000D02*
X90170000Y-95250000D01*
X97790000Y-97790000D02*
X95250000Y-95250000D01*
X101600000Y-97790000D02*
X104140000Y-95250000D01*
X107950000Y-95250000D02*
X110490000Y-92710000D01*
X104140000Y-95250000D02*
X107950000Y-95250000D01*
X128270000Y-97790000D02*
X127000000Y-97790000D01*
X133350000Y-93980000D02*
X129540000Y-97790000D01*
X129540000Y-97790000D02*
X128270000Y-97790000D01*
X133350000Y-92710000D02*
X133350000Y-93980000D01*
X105410000Y-96520000D02*
X104140000Y-97790000D01*
X125730000Y-96520000D02*
X105410000Y-96520000D01*
X127000000Y-97790000D02*
X125730000Y-96520000D01*
X111760000Y-97790000D02*
X114300000Y-100330000D01*
X154940000Y-95250000D02*
X157480000Y-92710000D01*
X143510000Y-95250000D02*
X154940000Y-95250000D01*
X134620000Y-95250000D02*
X143510000Y-95250000D01*
X129540000Y-100330000D02*
X134620000Y-95250000D01*
X114300000Y-100330000D02*
X129540000Y-100330000D01*
X109220000Y-97790000D02*
X113030000Y-101600000D01*
X130810000Y-110490000D02*
X132080000Y-110490000D01*
X128270000Y-107950000D02*
X130810000Y-110490000D01*
X128270000Y-101600000D02*
X128270000Y-107950000D01*
X113030000Y-101600000D02*
X128270000Y-101600000D01*
X106680000Y-97790000D02*
X111760000Y-102870000D01*
X130810000Y-127000000D02*
X132080000Y-127000000D01*
X127000000Y-123190000D02*
X130810000Y-127000000D01*
X127000000Y-102870000D02*
X127000000Y-123190000D01*
X111760000Y-102870000D02*
X127000000Y-102870000D01*
X90170000Y-111760000D02*
X87630000Y-109220000D01*
X63500000Y-104140000D02*
X62230000Y-104140000D01*
X66040000Y-106680000D02*
X63500000Y-104140000D01*
X66040000Y-109220000D02*
X66040000Y-106680000D01*
X87630000Y-109220000D02*
X66040000Y-109220000D01*
X87630000Y-111760000D02*
X64770000Y-111760000D01*
X63500000Y-106680000D02*
X62230000Y-106680000D01*
X64770000Y-107950000D02*
X63500000Y-106680000D01*
X64770000Y-111760000D02*
X64770000Y-107950000D01*
D35*
X63500000Y-96520000D02*
X69850000Y-96520000D01*
X72390000Y-99060000D02*
X72390000Y-100330000D01*
X69850000Y-96520000D02*
X72390000Y-99060000D01*
M02*
