M48
METRIC,TZ
T1C0.400
T2C0.701
T3C0.800
T4C0.800
T5C0.813
T6C1.001
T7C1.016
T8C1.143
T9C1.250
T10C1.500
T11C1.778
T12C2.301
%
G90
G05
T1
X68580Y-99060
X81280Y-82550
X81280Y-86360
X81280Y-90170
X81280Y-93980
X83820Y-96520
X83820Y-106680
X83820Y-113030
X87630Y-100330
X88900Y-106680
X90170Y-93980
X90170Y-99060
X91440Y-93980
X91440Y-99060
X92710Y-78740
X92710Y-80010
X93980Y-104140
X106680Y-86360
X113030Y-78740
X120650Y-124460
X121920Y-114300
X123190Y-124460
X123190Y-127000
X125730Y-105410
X125730Y-127000
X128270Y-129540
X129540Y-130810
X130810Y-97790
X130810Y-104140
X137160Y-97790
X138430Y-78740
X147320Y-130810
X158750Y-127000
T2
X72393Y-105411
X72393Y-115571
X76203Y-105411
X76203Y-115571
T3
X73660Y-92710
X87630Y-111760
X87630Y-119380
X90170Y-111760
X90170Y-119380
X92710Y-111760
X92710Y-119380
X95250Y-111760
X95250Y-119380
X96520Y-92710
X97790Y-111760
X97790Y-119380
X99060Y-97790
X99060Y-105410
X100330Y-111760
X100330Y-119380
X101600Y-97790
X101600Y-105410
X102870Y-111760
X102870Y-119380
X102870Y-128270
X104140Y-97790
X104140Y-105410
X105410Y-111760
X105410Y-119380
X105410Y-123190
X106680Y-97790
X106680Y-105410
X107950Y-111760
X107950Y-119380
X109220Y-97790
X109220Y-105410
X110490Y-111760
X110490Y-119380
X111760Y-97790
X111760Y-105410
X113030Y-111760
X113030Y-119380
X114300Y-97790
X114300Y-105410
X115570Y-111760
X115570Y-119380
X116840Y-97790
X116840Y-105410
X118110Y-111760
X118110Y-119380
X118110Y-128270
X119380Y-92710
X120650Y-111760
X120650Y-119380
X124460Y-97790
X135890Y-116840
X137160Y-100330
X143510Y-92710
T4
X76160Y-92710
X94020Y-92710
X100370Y-128270
X102910Y-123190
X108049Y-128270
X112931Y-128270
X120610Y-128270
X121880Y-92710
X121960Y-97790
X135890Y-119340
X137160Y-102830
X146010Y-92710
T5
X65311Y-119380
X65311Y-121920
X67310Y-119380
X67310Y-121920
T6
X71120Y-128270
X72390Y-100330
X72390Y-119380
X76200Y-123190
X81280Y-128270
X82550Y-100330
X82550Y-119380
X83820Y-82550
X83820Y-92710
X86360Y-123190
X87630Y-82550
X87630Y-92710
X90170Y-123190
X100330Y-123190
X106680Y-82550
X106680Y-92710
X110490Y-82550
X110490Y-92710
X129540Y-82550
X129540Y-92710
X132080Y-106680
X132080Y-110490
X132080Y-123190
X132080Y-127000
X133350Y-82550
X133350Y-92710
X142240Y-106680
X142240Y-110490
X142240Y-123190
X142240Y-127000
X153670Y-82550
X153670Y-92710
X157480Y-82550
X157480Y-92710
T7
X62230Y-104140
X62230Y-106680
X62230Y-109220
X69850Y-88900
X72390Y-76200
X72390Y-88900
X74930Y-76200
X74930Y-88900
X77470Y-76200
X80010Y-76200
X90170Y-127000
X92710Y-88900
X92710Y-127000
X95250Y-76200
X95250Y-88900
X97790Y-76200
X97790Y-88900
X100330Y-76200
X102870Y-76200
X115570Y-88900
X118110Y-76200
X118110Y-88900
X120650Y-76200
X120650Y-88900
X123190Y-76200
X125730Y-76200
X139700Y-88900
X140970Y-97790
X140970Y-100330
X140970Y-102870
X140970Y-114300
X140970Y-116840
X140970Y-119380
X142240Y-76200
X142240Y-88900
X144780Y-76200
X144780Y-88900
X147320Y-76200
X149860Y-76200
X154940Y-99060
X154940Y-101600
X154940Y-104140
X154940Y-106680
X154940Y-115570
X154940Y-118110
X154940Y-120650
X154940Y-123190
T8
X73660Y-83820
X76200Y-83820
X78740Y-83820
X96520Y-83820
X99060Y-83820
X101600Y-83820
X119380Y-83820
X121920Y-83820
X124460Y-83820
X143510Y-83820
X146050Y-83820
X146050Y-100330
X146050Y-102870
X146050Y-105410
X146050Y-118110
X146050Y-120650
X146050Y-123190
X148590Y-83820
T9
X77470Y-74040
X100330Y-74040
X123190Y-74040
X147320Y-74040
X157100Y-104140
X157100Y-120650
T10
X93980Y-97790
X102870Y-88900
X116840Y-92710
X128270Y-95250
X135890Y-109220
T11
X63500Y-81280
X63500Y-86360
X63500Y-91440
X63500Y-96520
T12
X62611Y-114651
X62611Y-126649
T0
M30
